<?xml version="1.0" encoding="utf-8"?>
<!-- Generator: Adobe Illustrator 26.0.2, SVG Export Plug-In . SVG Version: 6.00 Build 0)  -->
<svg version="1.1" id="Layer_1" xmlns="http://www.w3.org/2000/svg" xmlns:xlink="http://www.w3.org/1999/xlink" x="0px" y="0px"
	 viewBox="0 0 720 175" style="enable-background:new 0 0 720 175;" xml:space="preserve">
<style type="text/css">
	.st0{display:none;fill:#FFFFFF;}
	.st1{fill:#FFFFFF;stroke:#FFFFFF;stroke-miterlimit:10;}
	.st2{fill:#FFFFFF;}
</style>
<path class="st0" d="M289-60.5H-66.4c-1-0.1-2-0.1-3,0c-1.2,0.1-1.8-0.1-1.5-1.5c0.1-0.8,0.1-1.7,0-2.5v-166.9
	c0.1-0.8,0.1-1.7,0-2.5c-0.1-1.2,0.1-1.8,1.5-1.5c1,0.1,2,0.1,3,0h710.8c1,0.1,2,0.1,3,0c1.2-0.1,1.8,0.1,1.5,1.5
	c-0.1,0.8-0.1,1.7,0,2.5v166.9c-0.1,0.8-0.1,1.7,0,2.5c0.2,1.2-0.1,1.8-1.5,1.5c-1-0.1-2-0.1-3,0L289-60.5z M7.5-229.3
	c-1.4,0.1-1.9,0.2-2.3,0.3c-3.9,0.6-4.1,1.3-3.5,5.5c0.2,1.7-0.6,3.8-1.5,5.4s-2.4,2.7-3.7,4c-8.8,9-7.4,22.8-2.6,30.4
	c5.8,9,13.5,16.5,22.6,22c5.7,3.5,11.1,3.2,16.3-0.5c5.6-3.9,10.9-8.1,16-12.6c3.4-3.1,6.3-6.9,8.4-11c5.5-11.3,4.9-20.9-4.2-30
	c-1.2-1.2-2.4-2.2-3.8-3.1c-2-1.3-2.4-2.9-1.8-5.1c0.9-3.6,0.3-4.5-3.4-4.4c-5.2,0.1-10.3,1.1-14.3,4.9c-2.3,2.2-4.3,1.8-6.7,0.5
	c-2.7-1.6-5.5-3-8.4-4.3C12.1-228.1,9.8-228.8,7.5-229.3z M512.6-123.1L512.6-123.1h2.5c9,0,18,0,27,0c1.6,0,3.4,0.3,3.9-2
	c1.7-8.1,3.4-16.2,5-24.3c0.2-0.9-0.7-2-1-2.9c-0.7,0.5-1.4,1.1-2,1.8c-2.8,4.5-5.2,9.2-8.1,13.7c-3.3,5.4-8.9,8.9-15.2,9.5
	c-6,0.6-12,0.3-18,0.4c-2.2,0-3.4-1.3-3.6-3.3c-0.1-1.3-0.2-2.7-0.1-4c0-11.6,0-23.2,0-34.8c0-5.7-0.8-5.8,6.1-5.8
	c14,0.2,19.9,5.1,22.4,18.9c0.1,1.1,0.3,2.3,0.6,3.4c0.2,0.5,0.8,0.8,1.3,1c0.2,0.1,0.8-0.6,0.9-1c0.1-0.7,0.1-1.3,0.1-2
	c0.1-13.7,0.2-27.5,0.2-41.2c0-1.3,0.7-3.2-1.5-3.5c-0.4,0-1.2,2-1.4,3.2c-1.9,9.5-7.5,15.3-17.2,16.9c-2.8,0.3-5.6,0.4-8.5,0.4
	c-2.1,0.1-3-0.8-3-2.9c0-12.9,0-25.8,0-38.7c0-2.1,0.9-3,3-3c3.7,0,7.3,0.2,11,0c9.4-0.7,16.5,3.2,21.8,10.6c2.8,3.9,5.3,8,8.1,11.9
	c0.4,0.5,1.3,0.8,1.9,1.1c0.2-0.7,0.6-1.5,0.4-2.1c-2.1-7.3-4.4-14.6-6.4-21.9c-0.8-2.9-2.3-3.5-5-3.4c-8.5,0.1-17,0-25.5,0
	c-9.8,0-19.7,0-29.5,0.1c-1.1,0-2,0.6-2.7,1.4c-0.6,1.6,0.7,2.3,2.2,2.5c3.4,0.4,4.8,2.6,5,5.8c0.2,2.8,0.5,5.6,0.5,8.4
	c0,22.5,0,45,0,67.6c0,2.1-0.2,4.3-0.3,6.4c-0.1,4.1-0.9,7.7-6.1,8.1c-0.5,0-1.2,1.4-1.4,2.2c-0.1,0.4,0.9,1.3,1.6,1.4
	c1.2,0.2,2.3,0.2,3.5,0.1L512.6-123.1z M139.2-176.2c0.3-8.9,0.6-17.6,3-26.2c1.4-5.1,3.3-10.1,6.8-14.3
	c9.1-11.2,24.2-11.6,33.9-0.9c5,5.5,8.4,11.9,11.3,18.6c0.6,1.5,1.2,3.1,2,4.5c0.4,0.7,1.4,1.1,2.1,1.6c0.3-0.8,0.7-1.7,1-2.5
	c0.1-0.5,0.1-1,0-1.5c0-8.8,0-17.5,0.1-26.3c0-0.5,0.2-1,0-1.5s-0.6-1.3-1.1-1.4c-0.6-0.1-1.2,0.2-1.7,0.6c-0.3,0.6-0.6,1.2-0.7,1.8
	c-1.7,4-2.4,4.4-6.3,2.7c-3.1-1.3-5.9-3.1-8.9-4.5c-8.7-3.9-17.6-5-26.7-2s-15.9,9.5-21,17.5c-8,12.5-10.7,26.3-9.5,40.9
	c1.1,12.6,5.2,24.3,13.6,34.1c6.5,7.6,14.3,12.9,24.6,13.7c7.3,0.5,14.7-0.1,21.8-1.8c4.6-1,8.9-2.9,12.7-5.7c3-2.2,4.6-4.8,4.5-8.8
	c-0.3-7.6-0.1-15.2,0.1-22.8c0.1-3,0.3-6.1,4.3-6.8c0.5-0.1,1.3-1.4,1.1-1.8c-0.4-0.8-1.1-1.4-1.9-1.8c-0.7-0.2-1.3-0.2-2-0.1h-23
	c-0.8-0.1-1.7,0-2.5,0.2c-0.7,0.3-1.2,0.9-1.4,1.6c0.1,0.8,0.6,1.4,1.3,1.8c1.1,0.3,2.3,0.4,3.4,0.4c2.6,0,4.8,2,5.2,4.5
	c0.3,0.9,0.5,1.9,0.6,2.9c-0.3,6.9-0.4,13.9-1.1,20.8c-0.5,4.3-2.2,8.7-6.3,10.8c-7.4,3.8-15.3,4.5-23,0.7c-5.5-2.8-8.3-8-10.5-13.5
	C140.3-152.1,139.6-164.1,139.2-176.2z M39.6-158.7c7.4-0.9,14.2-1.4,21-2.5c9.4-1.5,18.7-3.4,27.1-8.1
	c11.9-6.6,18.3-16.9,17.4-30.5c-1.3-18.1-17.9-26.3-30.8-22.8c-4.9,1.3-5.1,1.2-7.3-3.9c-0.8-1.9-1.7-2.8-3.7-1.5
	c-1.4,0.9-2.9,1.6-4.3,2.4c-3,1.8-3.6,3.5-2,6.6c1.1,1.8,2.4,3.6,3.8,5.2c9.1,12,8.2,26.1-2.4,36.9c-1.5,1.6-3.1,3-4.8,4.3
	c-4.8,3.2-9.8,6.2-14.6,9.4c-1.3,1-2.5,2-3.6,3.1L39.6-158.7z M603.9-123.1h17.5c1.3,0,2.3-0.4,2.3-1.9s-1-1.9-2.3-2
	c-0.8,0-1.7,0-2.5-0.1c-4.9-0.5-6.7-2.3-7.1-7.3c-0.1-0.7-0.1-1.3-0.1-2c0-12.1-0.1-24.2,0-36.2c0.1-1.8,0.6-3.5,1.4-5.1
	c6.5-11.9,13.1-23.8,19.8-35.6c2.8-4.9,6.2-9.1,12.4-9.7c1.5-0.2,2.5-0.8,2.3-2.5s-1.5-1.4-2.7-1.4c-5.7,0-11.3-0.1-17,0
	c-1.7,0-4.5-1.5-4.9,1.6c-0.4,2.8,2.4,2.1,3.9,2.7c3.5,1.3,4.4,3.1,3.3,6.5c-0.4,1.1-0.9,2.1-1.5,3.1c-3.1,5.7-6.3,11.3-9.4,16.9
	c-2.6,4.6-5.2,9.2-7.8,13.9c-0.8,1.4-1.7,1.5-2.5,0.1c-0.3-0.6-0.6-1.2-1-1.8l-16.9-31c-0.4-0.7-0.8-1.5-1.1-2.2
	c-1-2.8-0.2-4.4,2.7-5.3c1.4-0.4,3-0.4,4.4-0.9c0.7-0.5,1.2-1.3,1.3-2.2c0-0.4-1-1.1-1.7-1.3c-0.7-0.1-1.3-0.2-2-0.1h-32
	c-0.8-0.1-1.7,0-2.5,0.2c-0.6,0.2-1.6,1.1-1.5,1.5c0.3,0.8,0.8,1.6,1.6,2.1c0.3,0.3,1,0.1,1.5,0.2c4.3,0.1,7,2.3,8.9,6
	c5.9,11.3,11.6,22.8,18.3,33.6c5.5,8.7,8,18.9,7.1,29.2c-0.5,6.4,0,12.9-0.2,19.4c-0.2,5.7-1.9,7.3-7.4,8c-1,0.1-2.1-0.1-2.9,0.3
	c-0.8,0.5-1.3,1.3-1.4,2.2c-0.1,0.4,1,1.2,1.7,1.4c1,0.2,2,0.2,3,0.1L603.9-123.1z M221.9-183.9c0,8.1-0.1,16.2,0,24.3
	c0,4,0.4,7.9,1,11.8c2.4,13.3,9.9,23.2,25.2,25.8c7.7,1.3,15.7,1,23.3-0.9c10.5-2.6,18.1-8.6,21-19.2c1.4-5.4,2.1-11,2.2-16.6
	c0.3-16.4,0.1-32.8,0.1-49.1c0-2.3,0-4.6,0.2-6.9c0.5-5.5,1.7-7,7.2-8.5c1.3-0.3,3-0.5,2.4-2.3c-0.6-0.9-1.5-1.5-2.6-1.6
	c-6.8-0.1-13.6-0.1-20.5,0c-1,0.1-2,0.7-2.5,1.6c-0.5,1.3,0.6,2,2,2.2c0.8,0.1,1.6,0.3,2.5,0.4c4,0.7,6.1,3.2,6.6,7
	c0.4,2.8,0.6,5.6,0.7,8.4c0.1,16,0.1,32.1,0,48.2c0,3.1-0.2,6.3-0.5,9.4c-1.4,13-9.2,21.8-22,24.2c-15,2.8-25.5-2.2-29.2-18
	c-1.2-5.3-1.8-10.8-1.8-16.2c-0.2-16-0.1-32.1-0.1-48.2c0-2,0-4,0.2-6c0.7-7.4,1-7.7,8.3-9.3c1-0.3,1.8-1,2.2-2
	c0.4-1.5-1-1.8-2.2-1.8h-6c-7.7,0-15.3,0-23,0c-1.4,0-3.2-0.4-3.5,1.8c-0.2,1.9,1.3,2,2.6,2.4c3.3,0.9,5,3.2,5.5,6.4
	c0.4,2.3,0.6,4.6,0.7,6.9C222-201.1,221.9-192.5,221.9-183.9L221.9-183.9z M429.8-123.1c10.5,0,21,0,31.5,0c2.2,0,3.7-0.3,4.2-3
	c1.6-8.5,3.4-16.8,5.1-25.3c0-0.8-0.2-1.5-0.5-2.2c-0.7,0.5-1.8,0.7-2.2,1.4c-2.2,4-4.2,8.3-6.5,12.3c-3.8,6.4-9.3,11-16.9,11.9
	c-5.6,0.6-11.3,0.8-16.9,0.6c-3.9-0.1-5.9-2.4-6.5-6.3c-0.3-2.1-0.4-4.3-0.3-6.4c0-23.7,0-47.3,0-71c0-2.3,0.1-4.6,0.4-6.9
	c0.2-2.4,2-4.4,4.4-4.8c1.1-0.3,2.3-0.4,3.5-0.5c1.7-0.1,2.7-1,2.3-2.5c-0.2-0.6-1.8-1.2-2.7-1.2c-10.3-0.1-20.6,0-31,0
	c-0.5-0.1-1-0.1-1.5,0c-0.5,0.2-1.4,0.6-1.4,1c-0.1,0.8,0.2,1.6,0.7,2.2c0.7,0.4,1.5,0.6,2.3,0.6c6,1.1,7.1,2.4,7.4,8.5
	c0,0.8,0,1.7,0,2.5c0,24.3,0,48.7,0,73c0.1,2,0,4-0.2,6c-0.5,3.8-2.2,5.5-6.1,6.1c-0.8,0-1.7,0.1-2.5,0.3c-0.8,0.4-1.8,1.2-1.8,1.8
	s1,1.6,1.7,1.9c1.1,0.2,2.3,0.2,3.5,0.1L429.8-123.1z M6.2-159.9c1,0.1,2,0.1,3,0c1.1-0.2,2.1-0.5,3.2-0.8c-0.6-1.1-1.4-2-2.3-2.8
	c-3.6-2.6-7.5-5-11.1-7.6c-7.7-5.5-11.9-13.2-13.4-22.4c-1.3-7.8-0.6-15,4.5-21.6c2.5-3.3,1.5-7.9-1.8-9.5
	c-3.3-1.5-6.8-2.8-10.3-3.7c-1.9-0.5-2.7,0.5-2.2,2.6c0.1,0.5,0.3,0.9,0.5,1.4c0.9,3.4,0.1,5-3.2,5.9c-2.9,0.8-5.8,1.3-8.8,1.9
	c-11.5,2.3-19.7,14.3-17.3,25.7c1.9,9.1,7.5,15.7,15.5,20.3C-23.8-162.8-8.5-161.2,6.2-159.9z M347.1-123.1h30c5.1,0,5.2,0,6.2-4.8
	c1.5-7.1,2.9-14.2,4.4-21.4c0.2-0.8,0.3-1.6,0.3-2.5c-0.1-0.6-0.3-1.2-0.7-1.7c-0.7,0.3-1.6,0.4-2,1c-0.6,1-1,2.1-1.5,3.1
	c-2.3,4-4.4,8.1-7,12c-3.1,4.9-8.1,8.2-13.7,9.1c-4.6,0.8-9.2,1.1-13.9,1.1c-9,0.1-11.2-2.1-11.2-11.1c-0.1-24.8,0-49.6,0-74.5
	c0-1.5,0.1-3,0.3-4.4c0.7-3.9,1.8-5.1,5.7-5.9c0.5-0.1,1-0.2,1.5-0.2c1.4-0.2,3.3,0.2,3.3-2c0-2.9-2.5-1.7-3.8-1.8
	c-9.8-0.1-19.7-0.1-29.5-0.1c-0.3,0-0.7-0.1-1,0c-0.9,0.5-2.3,0.9-2.5,1.6c-0.5,1.8,1,2.1,2.4,2.2c0.5,0,1,0.1,1.5,0.1
	c4.6,0.8,5.7,1.9,6.2,6.4c0.3,2.6,0.5,5.3,0.5,7.9c0,22.5,0,45,0,67.5c0,2-0.1,4-0.3,5.9c-0.7,6.9-1,7.1-8,8.4c-0.3,0.1-0.8,0-1,0.2
	c-0.6,0.6-1.1,1.3-1.4,2.2c-0.1,0.4,0.9,1.3,1.6,1.4c1.2,0.2,2.3,0.2,3.5,0.2L347.1-123.1z M1.3-158.2c-7,0.4-14.1,0.7-20.4,4
	c-5.6,2.9-10.8,6.5-16,10c-2.4,1.6-4,4.1-4.5,6.9c-0.3,1.8,0.5,3.1,2.5,2.6c6.1-1.8,11.8,0.3,17.6,1.5c6.3,1.3,12.7,3,19.1,3.6
	c13.1,1.2,22-7.1,22.5-17.8c0.2-1.6,0.6-3.2,1.2-4.8c1.3-4.2-0.1-5.7-4.7-5.1c-2.8,0.3-5.6,0.3-8.4,0.1
	C7.2-157.4,4.3-157.9,1.3-158.2z M89.6-136.3c0-3.3-1.7-4.9-4.2-5.8c-6-2.1-11.4-5.5-16-9.8c-3.3-2.9-7.4-4.6-11.8-4.8
	c-4.8-0.4-9.6-0.4-14.4,0c-3.8,0.4-7.4,1-11.3-0.2c-3.1-1-4.6,0.9-3.8,4.3c0.5,2.1,1.3,4.1,1.9,6.2c3.3,12.2,11.1,17.5,23.7,16
	c4-0.5,7.8-1.4,11.8-2.1c5.9-1,11.9-1.4,17.8,0.2C87.3-131.3,89.5-132.5,89.6-136.3z M92-136.9c-0.2,7.1,1.5,9.5,7.9,10.6
	c2.2,0.3,4,1.6,5,3.5c1.4,2.4,2.3,2.7,4.2,1c3-2.6,5.9-5.3,8.5-8.2c2.9-3.3,3-7.2,1.7-11.2c-2.8-8.5-8.6-13.8-17.5-14.6
	c-8.5-0.7-17.2-0.5-25.8-0.7c-0.3,0-0.7,0.1-1,0.2c-1.9,0.5-2.2,1.4-0.7,2.7c2.3,1.9,4.7,3.6,7.3,5.1c2,1.2,4.1,2.2,6.1,3.3
	C90.9-143.2,92.6-140.4,92-136.9L92-136.9z M-35.2-157v-0.3c-5.9,0.5-11.9,0.7-17.8,1.6c-8.6,1.3-13.8,6.7-16.2,14.9
	c-1,3-0.5,6.4,1.5,8.9c2,2.8,4.3,5.4,6.6,8c1.4,1.6,3.3,2,4.7,0.2c1.9-2.5,4.5-3.1,7.3-3.8c5.8-1.5,7.8-4,7.3-9.9
	c-0.4-3.2,1-6.3,3.6-8.2c1-0.8,2.1-1.6,3.3-2.2c3.7-2.2,7.5-4.2,11.2-6.4c0.8-0.6,1.6-1.4,2.2-2.2c-1.1-0.3-2.1-0.5-3.2-0.7
	C-28.3-157-31.8-157-35.2-157z M226.2-80.1c0.1,7.6,6.1,12.4,14.3,11.5c9.7-1.2,17-8.5,18.4-18.7c0.2-0.7,0.4-1.4,0.7-2.1
	c0.5,0.3,1,0.7,1.6,1c1,0.5,2,1.5,2.9,1.4c1.8-0.3,3.5-0.9,5.1-1.9c1.1-0.9,1.7-2.2,1.9-3.7c0.2-1.6-0.5-3-2.5-3
	c-1.6,0.1-1.6,1.4-1.6,2.6c0,0.3,0.1,0.7,0,1c-0.3,1.9-1,2.1-2.6,0.8s-2.9-2.8-4.6-3.7c-4.9-2.8-12.8,1.9-13,7.5
	c0,0.3-0.1,0.8,0.1,1c0.8,0.7,1.6,1.3,2.4,2c0.7-0.7,1.3-1.6,1.7-2.5c0.2-0.7-0.4-1.6-0.5-2.4c-0.2-1.7,1-3.2,2.7-3.4
	c0.2,0,0.4,0,0.6,0c2.2,0,3.1,1.1,3,3.6c-0.3,6.7-6.8,14.3-13.5,15.6c-4.3,0.8-8.5-0.7-10.5-4c-1.7-2.6-1.5-4.1,0.9-6
	c3.8-3,7.7-5.8,11.3-9c3.8-3.5,7.4-7.1,10.7-11c1.2-1.5,2-3.4,2.2-5.3c0.1-1.2-0.9-2.7-1.8-3.7c-0.9-0.3-1.9-0.1-2.6,0.5
	c-0.7,1-0.9,2.3-0.7,3.5c0.6,2.1,0.5,4-0.8,5.7c-1.8,2.3-3.9,4.5-5.9,6.7c-0.9,1-1.9,1.3-3,0.3c-2.2-1.9-4.5-0.8-6.6,0
	C230.7-93.5,226.2-86.5,226.2-80.1L226.2-80.1z M-21.1-86.4L-21.1-86.4c-2,0-4-0.1-6,0c-0.5,0-0.9,0.6-1.3,0.9
	c0.3,0.3,0.7,0.6,1.1,0.8c3.5,1.5,3.6,1.5,2.7,4.9c-0.5,1.8-1.1,3.5-1.7,5.2c-1,2.7-3,3.8-5.8,3.9c-5.7,0.1-9.9-3.6-10.7-9.6
	c-1.1-8.6,4.2-19.6,12.1-23.4c3.2-1.4,6.6-2.1,10-2.1c3.5-0.1,4.5,1.3,5.4,4.8c0.3,1,0.7,2,1.1,2.9c0.5-1,1-1.9,1.5-2.9
	s0.7-2.2,1.1-3.3c0.6-1.6,0-2.6-1.7-2.8c-3.6-0.4-7.3-1.2-10.9-1c-12.9,0.8-22.7,8.7-25.2,20.2c-2.3,10.3,3.5,18.5,14,19
	c4.2,0.2,8.5-0.9,12.8-1.5c1.9-0.3,2.4-1.4,2.8-3.3c0.9-3.5,2-6.9,3.5-10.2c0.3-0.9,1.5-1.4,2.2-2.1c-1.1-0.2-2.2-0.3-3.3-0.4
	S-19.9-86.4-21.1-86.4z M317.2-86.4L317.2-86.4c-2-0.1-4-0.1-6-0.1c-0.6,0.1-1.1,0.3-1.7,0.7c0.4,0.4,0.8,1.1,1.3,1.2
	c1.6,0.3,3.4,0.7,3,2.5c-0.7,3.2-1.8,6.3-3.2,9.3c-0.8,1.1-1.9,1.8-3.2,1.9c-4.3,0.5-10.5-1.1-11.7-7.6c-1.7-9.5,1.6-17.2,8.7-23.4
	c3.7-3.2,8.6-4.6,13.5-3.9c2.4,0.1,4.4,1.9,4.8,4.3c0.3,1.1,0.7,2.2,1.2,3.3c0.5-1.1,1.1-2.3,1.6-3.4c0.3-0.8,0.5-1.6,0.8-2.4
	c0.7-1.8,0.3-2.7-1.7-3.2c-6-1.6-12.3-1.4-18.2,0.5c-9.3,3.1-15.7,9.2-17.8,19c-2.2,10.5,3.8,18.6,14.6,19c3.6,0.1,7.2-0.7,10.8-1.2
	c2.6-0.3,3.7-1.6,4.1-4.5c0.5-3.3,2.2-6.5,3.7-9.6c0.4-0.9,1.5-1.4,2.2-2.1c-1.1-0.1-2.3-0.3-3.4-0.3S318.3-86.3,317.2-86.4
	L317.2-86.4z M388.9-76.7l1.1,0.9c-0.4,1.4-0.7,2.8-1,4.2c-0.3,2.4,0.9,3.5,3.2,2.8c3.2-0.9,6.1-2.8,8.2-5.5
	c0.3-0.5,0.5-1.1,0.7-1.7c-0.6,0.1-1.1,0.2-1.7,0.4c-0.3,0.1-0.5,0.5-0.8,0.6c-1.1,0.6-2.2,1.2-3.4,1.8c0.1-1.2,0.1-2.5,0.3-3.8
	c0.2-1,0.5-1.9,0.9-2.8c3.2-9.2,6.4-18.5,9.5-27.7c0.9-2.5,0.5-3-2.1-2.6c-1.8,0.3-3.6,0.7-5.3,1.3c0.4,1.1,0.7,2.3,0.9,3.5
	c0,0.8-0.1,1.6-0.4,2.4c-1,3-2.1,5.9-3.1,8.9c-0.5,1.5-1,1.9-2.8,1.8c-2.6-0.2-5.2,0.3-7.6,1.4c-5.4,2.8-9.4,7.7-11.1,13.5
	c-0.3,0.9-0.4,1.9-0.5,2.9c-0.3,5,2.2,7,6.7,5c2-0.9,3.8-2.1,5.4-3.5C387.1-74.1,388.1-75.3,388.9-76.7L388.9-76.7z M94.7-84.2
	l-1.2-0.9c0.3-1,0.6-2.1,1-3.1c1.9-5.3,3.8-10.5,5.6-15.9c0.5-1.9,1-3.9,1.3-5.9c-2.3,0.3-4.6,0.5-6.8,0.9c-0.4,0.1-1,1.6-0.8,1.7
	c2.1,1.8,0.7,3.7,0.1,5.5c-3,8.9-6.2,17.8-9.2,26.7c-0.5,1.2-0.9,2.5-1.2,3.8c-0.1,0.9,0.2,1.8,0.9,2.4c0.9,0.3,1.9,0.1,2.7-0.4
	c0.8-0.8,1.4-1.8,1.9-2.9c1.7-2.9,3.1-5.9,5-8.5c2-2.6,4.2-5.1,6.6-7.4c0.7-0.7,2-0.6,3.1-0.9c0.2,0.9,0.6,2,0.4,2.8
	c-1.1,4-2.4,7.9-3.7,11.8c-0.6,1.8-1.3,3.5-3.9,2.2c-0.4-0.2-1.4,0.9-2.1,1.3c0.6,0.7,1.3,2.1,1.7,2c1.9-0.3,4-0.7,5.5-1.8
	c5.1-3.8,7.1-9.4,8.5-15.3c0.5-2,0.8-4.5-1.3-5.9s-4.6-0.7-6.6,0.5c-1.9,1.3-3.8,2.7-5.5,4.3C95.8-86.2,95.2-85.2,94.7-84.2
	L94.7-84.2z M501.3-108.3c-1.8,0.3-4.4,0.5-7,1.2c-11.1,2.6-19.6,13.1-19.3,24c0.2,7,3.9,11.7,10.7,13.7c5,1.5,9.9,0.7,14.8-0.3
	c0.9-0.2,1.7-0.8,2.3-1.6c1.1-1.9,2.1-3.8,2.9-5.7c0.2-0.4,0-0.9-0.1-1.4c-0.6,0.1-1.3,0.1-1.7,0.5c-1.6,1.5-2.9,3.2-4.6,4.5
	c-3.3,2.7-7.1,3.5-11.2,1.9s-5.6-5-6-9c-0.8-7.9,1.7-14.8,7.6-20.1c2.3-2.1,5.5-3.5,8.5-4.8c2.5-1.1,5.4-0.9,7.7,0.5
	c2.3,1.2,2.2,3.5,2.4,5.6c0.1,0.5,0.4,0.9,0.8,1.1c0.2,0.1,0.9-0.3,1.1-0.6c3.4-6,2.4-8.2-4.5-9.2
	C504.5-108.1,503.3-108.1,501.3-108.3L501.3-108.3z M155.3-77.8l0.6,0.4c-0.6,1.8-1.4,3.6-1.9,5.5c-0.7,2.5,0.5,3.9,2.7,2.9
	c2.9-1.5,5.7-3.2,8.4-5.1c0.4-0.3,0.4-1.1,0.7-1.7c-0.7,0.1-1.4,0.3-2,0.6c-0.9,0.5-1.6,1.2-2.4,1.7c-0.4,0.2-0.9,0.2-1.3,0
	c-0.2-0.1-0.3-0.6-0.2-0.9c0.3-0.9,0.6-1.9,1-2.8c1.6-4.2,3.2-8.3,4.7-12.5c0.2-0.7,0.2-2-0.1-2.2c-0.8-0.5-1.8-0.6-2.8-0.5
	c-0.7,0.1-1.3,1-1.7,1.6c-0.9,1.8-1.9,3.5-2.9,5.2c-3,3.9-6.2,7.7-9.4,11.5c-0.3,0.4-1.2,0.3-1.8,0.5c-0.1-0.6-0.2-1.2-0.1-1.8
	c1.7-4.5,3.6-8.9,5.2-13.4c1-2.8-0.3-4.5-3.1-3.5s-5.4,3-8,4.7c-0.4,0.3-0.5,1.1-0.7,1.7c0.6,0,1.1-0.1,1.7-0.3
	c0.9-0.5,1.6-1.2,2.4-1.7c0.2-0.2,0.8-0.2,0.9-0.1c0.3,0.3,0.5,0.8,0.5,1.2c-0.3,1-0.8,1.8-1.1,2.8c-1.4,3.7-3,7.4-4.1,11.2
	c-0.3,1.2,0.1,2.5,0.9,3.5c0.7,0.6,2.5,0.4,3.6,0.1c1.3-0.5,2.4-1.2,3.4-2.1C150.8-73.5,153-75.6,155.3-77.8L155.3-77.8z M542.1-84
	c0.6-1.8,1.4-3.6,1.8-5.5c0.5-2.2-0.3-3.1-2.6-3c-3.4,0.3-5.8,2.2-7.9,4.6c-0.1,0.3-0.1,0.6,0,0.9c0.2,0.2,0.5,0.3,0.8,0.2
	c0.5-0.2,0.8-0.5,1.3-0.7c0.9-0.3,1.8-0.6,2.7-0.8c0,0.9,0,1.8-0.2,2.7c-0.4,1.6-1.1,3.1-1.7,4.7c-1.1,3.1-2.3,6.2-3.2,9.4
	c-0.2,0.7,0.3,2.4,0.7,2.5c1.1,0.1,2.1-0.1,3-0.7c0.7-0.5,1-1.7,1.5-2.5c2.1-3.6,4-7.2,6.3-10.7c1.6-2.1,3.4-4.1,5.3-5.8
	c0.4-0.4,1.5-0.2,2.2-0.4c0.2,0.6,0.2,1.2,0.2,1.8c-0.2,1-0.5,1.9-0.9,2.8c-1.6,3.8-3.3,7.6-4.7,11.5c-0.4,1.1-0.5,2.9,0.1,3.5
	c1.1,0.7,2.4,0.8,3.6,0.3c2.2-1,4.3-2.3,6.3-3.8c0.8-0.6,1.2-1.8,1.8-2.8c-0.9,0.4-1.9,0.7-2.8,1.2c-0.4,0.2-0.8,0.7-1.2,0.9
	c-0.4,0.2-0.9,0.3-1.3,0.4c-0.1-0.6-0.3-1.3-0.1-1.8c1.1-2.9,2.5-5.8,3.6-8.7c0.7-1.7,1.1-3.4,1.3-5.2c0.2-2.8-1.2-4.1-4-3.4
	c-2.1,0.6-4,1.5-5.7,2.8C546.2-87.8,544.1-86,542.1-84L542.1-84z M63.7-83.7l-0.5-0.5c0.6-1.8,1.4-3.7,1.9-5.6s-0.5-2.8-2.4-2.7
	c-3.2,0.1-5.6,2-7.7,4.1c-0.3,0.3-0.2,1.1-0.3,1.7c0.5-0.1,0.9-0.1,1.3-0.2c1.2-0.3,2.3-0.7,3.5-1c-0.2,1.2-0.3,2.5-0.7,3.7
	c-0.3,0.9-0.6,1.9-1,2.8c-1.2,3.3-2.5,6.5-3.5,9.8c-0.2,0.8,0.6,1.9,0.9,2.9c1-0.4,2.3-0.5,2.9-1.1c1-1.1,1.3-2.6,2.2-3.9
	c3-4.5,6-9.1,9.2-13.5c0.8-1,2.5-1.3,3.7-1.9c0,1.4-0.1,2.8-0.5,4.1c-1.6,4.2-3.4,8.2-5,12.4c-0.4,1-0.5,2.5,0.1,3.1
	c0.9,0.7,2,0.9,3.1,0.6c2.3-0.9,4.5-2.1,6.5-3.5c1-0.7,1.4-2.3,2.1-3.5c-1,0.6-2.1,1.2-3.2,1.8c-0.7,0.3-1.4,0.5-2.1,0.7
	c-0.1-0.8,0-1.6,0.2-2.3c1.3-3.2,2.8-6.4,4-9.6c0.8-2.2,1.8-4.8-0.3-6.5s-4.8-0.5-7,0.9c-0.8,0.5-1.6,1.2-2.3,1.9
	C67.1-87.3,65.4-85.5,63.7-83.7L63.7-83.7z M435.9-83.5c0.9-2.5,1.6-4.3,2.1-6.1c0.4-1.4,0.2-2.7-1.7-2.9c-2.5-0.3-7.7,2.4-8.9,4.7
	c-0.1,0.3-0.1,0.6,0,0.9c0.2,0.2,0.5,0.3,0.8,0.2c1.3-0.5,2.7-1,4-1.6c-0.3,1.7-0.6,3.4-1,5c-0.3,0.9-0.7,1.9-1.1,2.8
	c-1.1,3-2.2,5.9-3.1,8.9c-0.2,0.8,0.3,2.4,0.7,2.5c1,0.2,2.1-0.1,3-0.7c0.8-0.7,1.2-2,1.8-3c2.1-3.6,4-7.2,6.3-10.7
	c1.4-1.9,2.9-3.5,4.7-5c0.6-0.5,1.7-0.5,2.6-0.7c0.1,0.8,0.1,1.5,0,2.3c-0.7,2-1.5,4-2.3,6c-1.2,2.9-2.6,5.7-3.6,8.7
	c-0.8,2.3,0.4,3.8,2.6,3.3c3.8-0.6,7.2-2.8,9.4-6c0.2-0.3-0.1-0.8-0.2-1.3c-0.3,0-0.6,0.1-0.9,0.2c-1.4,0.8-2.7,1.7-4,2.5
	c0.4-1.7,0.7-3.4,1.2-5c0.7-2,1.7-4,2.4-6c0.6-1.7,1-3.5,1.2-5.3c0.2-2-1.1-3.4-3-3c-2.2,0.5-4.3,1.3-6.2,2.6
	C440.5-88.2,438.5-86,435.9-83.5L435.9-83.5z M339.6-76.7c-0.6,1.8-1.1,3.6-1.5,5.4c-0.3,1.9,0.7,2.9,2.6,2.5
	c3.5-0.7,6.6-2.5,8.8-5.2c0.2-0.3,0.2-0.6,0.1-0.9c-0.2-0.2-0.5-0.3-0.8-0.3c-0.4,0.2-0.9,0.5-1.3,0.7c-1.2,0.5-2.3,1-3.5,1.6
	c0.2-1.2,0.4-2.5,0.7-3.7c0.2-0.6,0.4-1.3,0.7-1.9c1.6-4.2,3.3-8.3,4.8-12.5c0.5-1,0.1-2.2-0.8-2.7c-0.5-0.3-1.2-0.3-1.7-0.1
	c-0.6,0.2-1,0.8-1.5,1.1c-0.8,0.4-1.7,1.2-2.3,1c-2.9-0.8-5.2,0.5-7.5,2c-5,3.3-8.9,8.1-11.2,13.6c-0.4,0.9-0.7,1.9-0.8,2.8
	c-0.4,3.3,1.7,5.1,4.8,4c1.6-0.6,3-1.3,4.4-2.3C335.4-72.9,337.1-74.5,339.6-76.7L339.6-76.7z M127.4-93.2c-2.3,1.1-4.9,1.9-6.9,3.4
	c-3.9,2.9-6.4,7.3-7.1,12.1c-1.1,6.3,3.8,10.5,10,8.7c6.8-2,12.3-10.1,11.6-17.2C134.5-90.5,132.1-92.7,127.4-93.2z M581-75.6
	c-0.2,5.4,3.1,8.2,8.2,6.5c2.4-0.8,4.6-2.5,6.8-4c0.4-0.3,0.5-1.1,0.7-1.7c-0.6,0-1.1,0-1.7,0.2c-1.3,0.7-2.5,1.7-3.9,2.1
	c-2.4,0.7-3.8-0.5-4-2.9c-0.2-2.2,0.4-3.6,2.8-4.5c3.5-1.4,6.9-3.1,10.1-5.2c1.7-1,2.3-3,1.5-4.8c-0.9-2.1-2.7-2.8-4.8-2.7
	c-1,0-2,0.2-3,0.4C587.3-90.2,581.3-82.2,581-75.6z M187-75.6c-0.2,5.7,3.1,8.2,8.6,6.3c1.9-0.7,3.6-1.6,5.2-2.8
	c0.8-0.6,1.2-1.8,1.9-2.7c-1,0.3-1.9,0.6-2.9,0.9c-0.4,0.2-0.9,0.5-1.3,0.8c-2.5,1.2-4.4,1-5.2-0.7c-1-2.2-0.1-4.7,2-5.8
	c0.1-0.1,0.2-0.1,0.3-0.1c2.6-1,5.2-2.1,7.7-3.4c3.5-1.9,4.8-4.6,3.6-7.2c-1-2.3-4.2-3-8-1.7C192.9-89.8,187.2-82.1,187-75.6
	L187-75.6z M403.9-75.7c-0.2,5.7,3.2,8.3,8.6,6.4c2.1-0.9,4.1-2.1,5.9-3.5c0.6-0.4,0.8-1.3,1.1-2c-0.8,0.2-1.7,0.4-2.5,0.7
	c-0.6,0.2-1.1,0.7-1.7,1c-2.5,1.3-4.5,1-5.2-0.7c-1-2.3,0-5,2.3-6c0,0,0,0,0,0c2.9-1.1,5.8-2.4,8.6-3.9c3-1.7,4-4.4,3-6.6
	c-0.9-2-3.2-2.8-6.5-2.1c-0.5,0.1-1,0.2-1.6,0.4C409.9-89.8,404.1-82.1,403.9-75.7L403.9-75.7z M509.9-75.4c0,4.2,2,6.9,5.5,6.8
	c3.9-0.1,7.5-2,9.9-5c0.2-0.3,0.1-0.8,0.1-1.3c-0.4,0-0.9,0-1.3,0.1c-1.6,0.8-3.1,1.9-4.8,2.4c-1.9,0.5-3.2-0.5-3.4-2.6
	c-0.3-2.8,0.3-3.7,2.9-4.8c3.1-1.2,6.1-2.6,9-4.3c2.6-1.6,3.2-4.4,2.1-6.4c-1-1.8-3.3-2.5-6.2-1.9C516.7-91,509.9-82.6,509.9-75.4
	L509.9-75.4z M8.9-75.4c0,3.6,1.3,5.8,4,6.6c3.2,0.9,10.2-2.2,11.7-5.3c0.1-0.3,0.1-0.6-0.1-0.9c-0.2-0.2-0.6-0.3-0.9-0.2
	c-1.2,0.9-2.5,1.7-3.8,2.4c-1.5,0.7-3.3,1.1-4.5-0.6c-1.4-2-0.2-5.4,2.3-6.4c2.6-1,5.2-2.1,7.7-3.4c3.4-1.9,4.7-4.9,3.5-7.3
	c-1-2-4.3-2.7-7.7-1.6C14.9-90,9-82,8.9-75.4L8.9-75.4z M30.9-75.5c-0.1,5.5,3.1,8,8.3,6.3c1.6-0.5,3.1-1.2,4.4-2.2
	c1.1-1.1,2-2.3,2.8-3.6c-1.2,0.6-2.5,1.2-3.8,1.6c-1.5,0.4-3.6,1-4.6,0.3s-1.2-2.9-1-4.4c0.1-0.9,1.5-1.9,2.6-2.4
	c3.1-1.6,6.4-2.8,9.3-4.6c2.1-1.2,2.9-3.9,1.9-6.1c-1.1-2.1-3.1-2.2-5.2-2c-0.8,0-1.7,0.2-2.5,0.4C37-90.1,31.1-82.2,30.9-75.5
	L30.9-75.5z M577.1-95.2c-0.3-0.6-0.6-1.9-0.9-1.9c-0.9-0.1-1.8,0.2-2.5,0.9c-1.9,2.5-3.4,5.4-7.3,5.2c-0.3,0-0.6,0.7-0.9,1
	c0.4,0.3,0.7,0.8,1.1,0.8c2.7,0,2.5,1.5,1.8,3.3s-1.2,3.5-1.8,5.2c-0.9,2.3-1.7,4.7-2.3,7.1c-0.3,1.5,0.2,3.1,0.3,4.7
	c1.6-0.2,3.3-0.1,4.7-0.7c1.8-0.8,3.5-2,4.9-3.3c1.1-1,3.1-1.6,2.4-3.8l-3.6,2.2c-0.1,0.1-0.2,0.3-0.4,0.3c-0.7,0.2-1.4,0.4-2.2,0.6
	c-0.1-0.8-0.1-1.6,0-2.3c1.2-3.6,2.5-7.2,3.8-10.8c0.3-1.5,1.8-2.6,3.3-2.4c0.7,0.1,1.3,0.1,2-0.1c0.7-0.3,1.4-0.6,2-1
	c-0.6-0.4-1.2-1.1-1.8-1.1C577-91.4,575.2-92,577.1-95.2L577.1-95.2z M-1.2-84.8l-0.7-0.3c0.4-1.4,0.7-2.8,0.9-4.2
	c0.3-2.4-0.9-3.7-3.2-3c-2.1,0.7-3.9,2.3-5.7,3.7c-0.4,0.3-0.4,1.4-0.5,2.1c0.6-0.2,1.1-0.5,1.7-0.6c0.8-0.2,1.7-0.5,2.6-0.7
	C-6-87-6-86.1-6.2-85.1C-7.5-81-9-77-10.3-72.9c-0.5,1.5-1.5,3.3,0.9,4.1c2.1,0.7,2.9-1,3.6-2.5c1-2.1,1.8-4.3,2.9-6.3
	c1.6-3,3.3-6.1,5.2-9c0.9-1.4,2.1-2.3,3.3,0c0.4,0.6,1.1,1,1.9,1c1.5-0.3,2.6-3.4,1.9-5.1c-0.5-1.4-2.1-2.2-3.5-1.7
	c-0.2,0.1-0.4,0.2-0.6,0.3c-1.2,0.7-2.2,1.5-3,2.6C1-88.1-0.1-86.4-1.2-84.8z M362.9-83.2c0.5-1.5,0.9-3.1,1.2-4.7
	c0.1-1.4,0.1-3.7-0.5-4c-1.5-0.5-3.2-0.4-4.6,0.2c-1.5,0.8-2.7,2.4-4,3.7c-0.2,0.2-0.1,0.9-0.1,1.3c0.4-0.1,0.9-0.2,1.3-0.3
	c0.3-0.1,0.5-0.5,0.8-0.6c0.8-0.3,1.7-0.6,2.5-0.9c0.1,0.9,0,1.9-0.2,2.8c-1.4,4.4-3,8.8-4.5,13.2c-0.4,1.2-1.2,2.7,0.5,3.5
	c1.9,0.9,3.2,0,4-1.8s1.6-3.7,2.5-5.4c2-3.6,4-7.2,6.1-10.8c0.8-1.3,2-1.9,2.9,0.1c1.1,2.3,2.3,1.5,3.2,0s1.5-3.7-0.1-5
	s-3.5-0.7-4.8,0.9C367.3-88.8,365.5-86.4,362.9-83.2L362.9-83.2z M613.6-84.1l-0.6-0.3c0.2-0.8,0.4-1.5,0.6-2.2
	c0.3-1.9,1.3-3.9-0.5-5.5c-1.2-1-4.3-0.1-6.3,1.8c-0.7,0.7-1.3,1.4-1.9,2.3c-0.2,0.4-0.3,0.9-0.3,1.3c0.4,0.1,0.9,0.1,1.3,0
	c0.4-0.2,0.7-0.7,1.2-0.9c0.7-0.4,1.5-0.6,2.2-1c0.1,0.9,0.1,1.8,0,2.7c-1.5,4.7-3.2,9.4-4.7,14.1c-0.2,1,0,2.1,0.7,2.9
	c1,0.7,2.4,0.5,3.1-0.5c0.1-0.2,0.2-0.3,0.3-0.5c0.8-1.6,1.5-3.3,2.3-4.9c2.1-3.9,4.2-7.8,6.5-11.7c0.9-1.5,2.1-2.1,3.3,0
	c0.6,0.6,1.5,0.9,2.3,0.7c1.8-1.3,2.3-3.8,1-5.7c-1.1-1.3-3-1.2-4.8,0.4c-0.8,0.6-1.5,1.3-2.1,2.1C615.9-87.5,614.8-85.8,613.6-84.1
	L613.6-84.1z M171.3-68.6c3.8,0.1,7.6-2.1,9-4.9c1.6-2.9,1.1-5.8-0.7-8.5c-1-1.5-2.2-2.9-3.1-4.5c-0.3-0.7-0.2-1.5,0.2-2.2
	c0.6-0.6,1.4-0.8,2.2-0.6c1.1,0.6,2.2,1.3,3.3,2.1c1.4,0.8,2.6,0.1,2.7-1.6c0.2-1.7-1-3.3-2.7-3.6c-3.5-0.8-6.1,0.8-8.3,3.3
	c-2,2.4-2.4,5-0.7,7.8c0.7,1.1,1.6,2.1,2.3,3.3c1,1.7,2.8,3.5,1,5.3s-3.6,0.2-5.2-1.1c-1.1-0.8-2.1-1.9-3.3-0.3
	c-1,1.1-0.9,2.7,0.2,3.7c0.1,0.1,0.2,0.2,0.3,0.3C169.4-69.4,170.3-69,171.3-68.6z"/>
<path class="st1" d="M70.1-223.7c2.3,0.5,4.6,1.2,6.8,2c2.9,1.3,5.7,2.7,8.4,4.3c2.4,1.4,4.4,1.7,6.7-0.5c3.9-3.8,9-4.8,14.3-4.9
	c3.7-0.1,4.3,0.8,3.4,4.4c-0.6,2.2-0.1,3.8,1.8,5.1c1.4,0.9,2.7,2,3.8,3.2c9.1,9.1,9.7,18.7,4.2,30c-2.1,4.1-4.9,7.9-8.4,11
	c-5.1,4.5-10.4,8.7-16,12.6c-5.2,3.7-10.6,4.1-16.3,0.5c-9.1-5.5-16.9-13-22.6-22c-4.8-7.6-6.2-21.4,2.6-30.4c1.3-1.3,2.8-2.5,3.7-4
	s1.8-3.7,1.5-5.4c-0.5-4.1-0.4-4.8,3.5-5.5C68.2-223.5,68.7-223.5,70.1-223.7z"/>
<path class="st2" d="M575.2-117.4h-27.5c-1.2,0.1-2.3,0-3.5-0.1c-0.6-0.2-1.6-1-1.6-1.4c0.1-0.8,0.8-2.1,1.4-2.2
	c5.2-0.4,5.9-4,6.1-8.1c0.1-2.2,0.3-4.3,0.3-6.4c0-22.5,0-45,0-67.5c0-2.8-0.3-5.6-0.5-8.4c-0.2-3.2-1.6-5.4-5-5.8
	c-1.5-0.2-2.8-0.8-2.2-2.5c0.6-0.9,1.6-1.4,2.7-1.4c9.8-0.1,19.7-0.1,29.5-0.1c8.5,0,17,0.1,25.5,0c2.7,0,4.3,0.5,5,3.4
	c2,7.4,4.3,14.6,6.4,21.9c0.2,0.6-0.3,1.4-0.4,2.1c-0.7-0.4-1.5-0.6-1.9-1.1c-2.7-3.9-5.3-8-8.1-11.9c-5.3-7.3-12.4-11.3-21.8-10.6
	c-3.7,0.3-7.3,0.1-11,0c-2.1,0-3,0.8-3,3c0.1,12.9,0.1,25.8,0,38.7c0,2.1,0.9,3,3,2.9c2.8,0,5.7-0.1,8.5-0.4
	c9.7-1.6,15.2-7.4,17.2-16.9c0.2-1.2,1.1-3.2,1.4-3.2c2.2,0.2,1.5,2.2,1.5,3.5c0,13.7-0.1,27.5-0.2,41.2c0.1,0.7,0,1.3-0.1,2
	c-0.1,0.4-0.7,1-0.9,1c-0.5-0.2-1.2-0.6-1.3-1c-0.3-1.1-0.5-2.3-0.6-3.4c-2.5-13.8-8.3-18.7-22.4-18.9c-6.9-0.1-6.1,0-6.1,5.8
	c0,11.6,0,23.2,0,34.8c0,1.3,0,2.7,0.1,4c0.2,2.1,1.4,3.4,3.6,3.3c6-0.1,12,0.2,18-0.4c6.3-0.6,11.9-4.1,15.2-9.5
	c2.9-4.4,5.4-9.1,8.1-13.7c0.6-0.7,1.3-1.3,2-1.8c0.4,1,1.2,2.1,1,2.9c-1.6,8.1-3.3,16.2-5,24.3c-0.5,2.3-2.3,2-3.9,2
	c-9,0-18,0-27,0H575L575.2-117.4z"/>
<path class="st2" d="M201.8-170.5c0.3,12,1.1,24.1,5.6,35.5c2.2,5.5,4.9,10.7,10.5,13.5c7.7,3.8,15.6,3,23-0.7
	c4.2-2.1,5.8-6.5,6.3-10.8c0.7-6.9,0.8-13.8,1.1-20.8c-0.1-1-0.3-2-0.6-2.9c-0.4-2.6-2.5-4.5-5.2-4.6c-1.2,0-2.3-0.1-3.4-0.4
	c-0.7-0.3-1.2-1-1.3-1.8c0.2-0.7,0.7-1.3,1.4-1.6c0.8-0.2,1.6-0.3,2.5-0.2h23c0.7-0.1,1.3-0.1,2,0.1c0.8,0.4,1.5,1,1.9,1.8
	c0.2,0.4-0.6,1.7-1.1,1.8c-4,0.7-4.2,3.8-4.3,6.8c-0.2,7.6-0.3,15.2-0.1,22.8c0.1,4-1.5,6.5-4.5,8.8c-3.8,2.8-8.1,4.7-12.6,5.7
	c-7.1,1.7-14.5,2.4-21.8,1.8c-10.3-0.7-18.2-6.1-24.6-13.7c-8.4-9.8-12.5-21.4-13.6-34.1c-1.2-14.6,1.5-28.4,9.5-40.9
	c5.1-8,11.8-14.4,21-17.5s18.1-1.9,26.7,2c3,1.4,5.9,3.2,8.9,4.5c4,1.7,4.7,1.3,6.3-2.7c0.2-0.6,0.4-1.2,0.7-1.8
	c0.4-0.5,1.1-0.7,1.7-0.6c0.5,0.1,0.9,0.9,1.1,1.4s0,1,0,1.5c0,8.8,0,17.5-0.1,26.3c0.1,0.5,0.1,1,0,1.5c-0.3,0.9-0.7,1.7-1,2.5
	c-0.7-0.5-1.7-0.9-2.1-1.6c-0.8-1.5-1.4-3-2-4.5c-3-6.7-6.4-13.1-11.3-18.6c-9.7-10.6-24.8-10.2-33.9,0.9c-3.4,4.2-5.3,9.1-6.8,14.3
	C202.4-188.2,202.1-179.4,201.8-170.5z"/>
<path class="st2" d="M102.1-153l-4.3-1.2c1.1-1.1,2.3-2.2,3.6-3.1c4.8-3.2,9.8-6.2,14.6-9.5c1.7-1.3,3.4-2.7,4.8-4.3
	c10.6-10.8,11.5-24.9,2.4-36.9c-1.4-1.6-2.6-3.4-3.8-5.2c-1.7-3-1-4.8,2-6.6c1.4-0.9,3-1.5,4.3-2.4c2-1.3,2.9-0.4,3.7,1.5
	c2.2,5,2.4,5.2,7.3,3.9c12.9-3.5,29.5,4.7,30.8,22.8c1,13.7-5.5,23.9-17.4,30.5c-8.4,4.7-17.7,6.6-27.1,8.1
	C116.4-154.4,109.6-153.9,102.1-153z"/>
<path class="st2" d="M666.5-117.5h-15c-1,0.1-2,0.1-3-0.1c-0.7-0.2-1.8-1-1.7-1.4c0.2-0.9,0.7-1.7,1.4-2.2c0.8-0.4,1.9-0.2,2.9-0.3
	c5.6-0.6,7.2-2.2,7.4-8c0.2-6.5-0.3-12.9,0.2-19.4c0.9-10.2-1.6-20.5-7.1-29.2c-6.7-10.8-12.3-22.3-18.3-33.6c-2-3.8-4.6-5.9-8.9-6
	c-0.5,0-1.2,0.1-1.5-0.2c-0.7-0.5-1.2-1.3-1.6-2.1c-0.1-0.4,0.9-1.2,1.5-1.5c0.8-0.2,1.6-0.2,2.5-0.2h32c0.7-0.1,1.3-0.1,2,0.1
	c0.7,0.3,1.7,1,1.7,1.3c-0.1,0.9-0.6,1.7-1.3,2.2c-1.3,0.6-3,0.5-4.4,0.9c-2.9,0.9-3.7,2.5-2.7,5.3c0.3,0.8,0.7,1.5,1.1,2.2l16.9,31
	c0.3,0.6,0.6,1.2,1,1.8c0.9,1.4,1.7,1.3,2.5-0.1c2.6-4.6,5.2-9.2,7.8-13.9c3.2-5.6,6.3-11.3,9.4-16.9c0.6-1,1.1-2.1,1.5-3.1
	c1.2-3.4,0.2-5.2-3.3-6.5c-1.5-0.6-4.3,0-3.9-2.7c0.5-3,3.2-1.5,4.9-1.6c5.7-0.2,11.3-0.1,17,0c1.1,0,2.4-0.3,2.7,1.4
	s-0.8,2.4-2.3,2.5c-6.2,0.6-9.7,4.9-12.4,9.7c-6.7,11.8-13.3,23.7-19.8,35.6c-0.9,1.6-1.4,3.3-1.4,5.1c-0.1,12.1,0,24.2,0,36.2
	c0,0.7,0,1.3,0.1,2c0.4,5,2.2,6.8,7.1,7.3c0.8,0.1,1.7,0.1,2.5,0.1c1.3,0.1,2.3,0.5,2.3,2s-1,1.9-2.3,1.9L666.5-117.5L666.5-117.5z"
	/>
<path class="st2" d="M284.5-178.2c0-8.6,0-17.2,0-25.8c-0.1-2.3-0.3-4.6-0.7-6.9c-0.5-3.2-2.2-5.5-5.5-6.4c-1.3-0.3-2.8-0.5-2.6-2.4
	c0.3-2.2,2.1-1.8,3.5-1.8c7.7,0,15.3,0,23,0h6c1.3,0,2.6,0.3,2.2,1.8c-0.4,1-1.2,1.7-2.2,2c-7.2,1.6-7.7,1.9-8.3,9.3
	c-0.2,2-0.2,4-0.2,6c0,16.1-0.1,32.1,0.1,48.2c0,5.5,0.6,10.9,1.7,16.2c3.6,15.8,14.2,20.7,29.2,18c12.8-2.3,20.6-11.2,22-24.2
	c0.3-3.1,0.5-6.3,0.5-9.4c0-16.1,0-32.1,0-48.2c0-2.8-0.3-5.6-0.7-8.4c-0.5-3.9-2.6-6.4-6.6-7c-0.8-0.1-1.6-0.3-2.5-0.4
	c-1.3-0.2-2.5-0.8-2-2.2c0.5-0.9,1.5-1.5,2.5-1.6c6.8-0.1,13.6-0.1,20.5,0c1.1,0.1,2,0.7,2.6,1.6c0.6,1.8-1.1,2-2.4,2.3
	c-5.5,1.4-6.8,2.9-7.2,8.5c-0.2,2.3-0.2,4.6-0.2,6.9c0,16.4,0.2,32.8-0.1,49.2c0,5.6-0.7,11.2-2.1,16.6c-2.9,10.5-10.5,16.5-21,19.2
	c-7.6,1.9-15.5,2.2-23.3,0.9c-15.3-2.6-22.9-12.4-25.2-25.8c-0.6-3.9-1-7.9-1-11.8C284.4-162,284.5-170.1,284.5-178.2z"/>
<path class="st2" d="M492.4-117.5h-30c-1.2,0.1-2.3,0.1-3.5-0.1c-0.7-0.2-1.7-1.2-1.7-1.9s1-1.5,1.8-1.8c0.8-0.2,1.6-0.3,2.5-0.3
	c3.9-0.6,5.6-2.2,6.1-6.1c0.2-2,0.3-4,0.2-6c0-24.3,0-48.7,0-73c0-0.8,0-1.7,0-2.5c-0.3-6.1-1.4-7.4-7.4-8.5c-0.8,0-1.6-0.2-2.3-0.6
	c-0.5-0.6-0.8-1.4-0.7-2.2c0-0.4,0.9-0.8,1.4-1c0.5-0.1,1-0.1,1.5,0c10.3,0,20.6,0,31,0c1,0,2.5,0.6,2.7,1.2
	c0.4,1.5-0.7,2.4-2.3,2.5c-1.2,0.1-2.3,0.3-3.5,0.5c-2.4,0.4-4.2,2.3-4.4,4.8c-0.3,2.3-0.4,4.6-0.4,6.9c0,23.7,0,47.3,0,71
	c0,2.2,0.1,4.3,0.3,6.4c0.5,3.9,2.6,6.2,6.5,6.3c5.6,0.2,11.3,0,16.9-0.6c7.6-0.9,13.1-5.5,16.9-11.9c2.4-4,4.3-8.2,6.5-12.3
	c0.4-0.7,1.4-0.9,2.2-1.4c0.3,0.7,0.5,1.4,0.5,2.2c-1.7,8.4-3.5,16.8-5.1,25.3c-0.5,2.6-2,3-4.2,3
	C513.4-117.5,502.9-117.5,492.4-117.5z"/>
<path class="st1" d="M68.8-154.2c-14.8-1.3-30-3-43.7-10.7c-8-4.5-13.6-11.1-15.5-20.3c-2.4-11.4,5.8-23.4,17.3-25.7
	c2.9-0.6,5.9-1.1,8.8-1.9c3.3-0.9,4.1-2.5,3.2-5.9c-0.1-0.5-0.4-0.9-0.5-1.4c-0.4-2,0.4-3.1,2.2-2.6c3.5,0.9,7,2.2,10.3,3.7
	c3.3,1.6,4.3,6.3,1.8,9.5c-5.1,6.6-5.9,13.8-4.5,21.6c1.6,9.2,5.7,16.9,13.4,22.4c3.6,2.6,7.5,5,11.1,7.6c0.9,0.8,1.7,1.8,2.3,2.8
	c-1.1,0.3-2.1,0.6-3.2,0.8C70.8-154.2,69.8-154.1,68.8-154.2z"/>
<path class="st2" d="M409.7-117.5h-30c-1.2,0.1-2.3,0-3.5-0.2c-0.6-0.2-1.6-1-1.6-1.4c0.3-0.8,0.8-1.6,1.4-2.2
	c0.2-0.2,0.6-0.1,1-0.2c7-1.2,7.3-1.5,8-8.4c0.2-2,0.3-4,0.3-5.9c0-22.5,0-45,0-67.5c0-2.6-0.2-5.3-0.5-7.9
	c-0.6-4.5-1.7-5.5-6.2-6.4c-0.5-0.1-1-0.1-1.5-0.1c-1.4-0.1-2.9-0.4-2.4-2.2c0.2-0.7,1.6-1.1,2.5-1.6c0.3-0.1,0.7,0,1,0
	c9.8,0,19.7,0,29.5,0.1c1.3,0,3.7-1.1,3.8,1.8c0,2.3-1.9,1.8-3.3,2c-0.5,0.1-1,0.1-1.5,0.2c-3.8,0.8-5,2-5.7,5.9
	c-0.2,1.5-0.4,3-0.3,4.4c0,24.8-0.1,49.6,0,74.4c0,9,2.2,11.2,11.2,11.1c4.6,0,9.3-0.4,13.9-1.1c5.7-1,10.7-4.3,13.7-9.1
	c2.5-3.9,4.7-8,7-12c0.4-1.1,0.9-2.1,1.5-3.1c0.4-0.5,1.3-0.7,2-1c0.3,0.5,0.5,1.1,0.7,1.7c0,0.8-0.1,1.6-0.3,2.5
	c-1.5,7.1-2.9,14.2-4.4,21.4c-1,4.8-1.1,4.7-6.2,4.8L409.7-117.5z"/>
<path class="st1" d="M63.9-152.6c3,0.3,5.9,0.8,8.9,1c2.8,0.2,5.6,0.2,8.4-0.1c4.5-0.6,6,0.8,4.7,5.1c-0.6,1.5-1,3.1-1.2,4.8
	c-0.6,10.7-9.5,19-22.5,17.8c-6.4-0.6-12.7-2.3-19.1-3.6c-5.8-1.2-11.5-3.2-17.6-1.5c-2,0.6-2.8-0.8-2.5-2.6
	c0.4-2.8,2.1-5.3,4.5-6.9c5.3-3.5,10.5-7.1,16-10C49.8-151.8,56.8-152.2,63.9-152.6z"/>
<path class="st1" d="M152.2-130.6c-0.1,3.8-2.3,5-6.5,3.9c-5.8-1.5-11.8-1.2-17.8-0.2c-3.9,0.7-7.8,1.6-11.8,2.1
	c-12.6,1.5-20.3-3.9-23.7-16c-0.6-2.1-1.4-4.1-1.9-6.2c-0.8-3.3,0.7-5.2,3.8-4.3c3.9,1.2,7.5,0.5,11.3,0.2c4.8-0.4,9.6-0.4,14.4,0
	c4.4,0.2,8.5,1.9,11.8,4.8c4.6,4.3,10,7.7,16,9.8C150.6-135.5,152.3-133.9,152.2-130.6z"/>
<path class="st2" d="M154.6-131.2c0.7-3.6-1-6.3-4.4-8.3c-2-1.2-4.1-2.1-6.1-3.3c-2.5-1.5-5-3.3-7.3-5.1c-1.5-1.3-1.2-2.2,0.7-2.7
	c0.3-0.1,0.7-0.2,1-0.2c8.6,0.2,17.2,0,25.8,0.7c9,0.8,14.8,6.1,17.5,14.6c1.3,4,1.2,7.9-1.7,11.2c-2.6,2.9-5.5,5.7-8.5,8.2
	c-1.9,1.7-2.9,1.4-4.2-1c-1-1.9-2.8-3.3-5-3.5C156.1-121.7,154.3-124.1,154.6-131.2z"/>
<path class="st1" d="M27.3-151.3c3.5,0,7,0,10.5,0c1.1,0.1,2.2,0.3,3.2,0.7c-0.6,0.8-1.4,1.6-2.2,2.2c-3.7,2.2-7.5,4.2-11.2,6.4
	c-1.1,0.7-2.2,1.4-3.3,2.2c-2.6,1.8-4,5-3.6,8.2c0.5,5.9-1.5,8.4-7.3,9.9c-2.8,0.7-5.4,1.3-7.3,3.8c-1.4,1.8-3.3,1.4-4.7-0.2
	c-2.3-2.6-4.6-5.2-6.6-8c-1.9-2.6-2.5-5.9-1.5-8.9c2.4-8.3,7.6-13.6,16.2-14.9c5.9-0.9,11.9-1.1,17.8-1.6L27.3-151.3z"/>
<path class="st2" d="M288.8-74.5c-0.1-6.3,4.5-13.4,10.4-15.8c2.1-0.9,4.4-1.9,6.6,0c1.1,1,2.2,0.7,3-0.3c2-2.2,4-4.4,5.9-6.7
	c1.3-1.7,1.4-3.6,0.8-5.7c-0.2-1.2,0-2.5,0.7-3.5c0.7-0.6,1.7-0.8,2.6-0.5c0.9,1,2,2.5,1.8,3.7c-0.2,2-0.9,3.8-2.1,5.4
	c-3.4,3.9-6.9,7.5-10.7,11c-3.6,3.2-7.5,6-11.3,9c-2.4,1.9-2.5,3.4-0.9,6c2.1,3.2,6.2,4.8,10.5,4c6.6-1.3,13.2-8.9,13.5-15.6
	c0.1-2.4-0.8-3.6-3-3.6c-1.7-0.2-3.2,1.1-3.4,2.8c0,0.2,0,0.4,0,0.6c0,0.8,0.7,1.7,0.5,2.4c-0.4,0.9-1,1.7-1.7,2.5
	c-0.8-0.7-1.7-1.3-2.4-2c-0.2-0.2-0.1-0.6-0.1-1c0.2-5.6,8.1-10.3,13-7.5c1.7,1,3.1,2.5,4.6,3.7s2.3,1.1,2.6-0.8c0-0.3,0-0.7,0-1
	c0-1.2,0-2.5,1.6-2.6c2-0.1,2.7,1.4,2.5,3c-0.2,1.4-0.9,2.7-1.9,3.7c-1.5,1-3.3,1.7-5.1,1.9c-0.9,0.1-1.9-0.8-2.9-1.4
	c-0.5-0.3-1.1-0.7-1.6-1c-0.3,0.7-0.5,1.4-0.7,2.1c-1.5,10.2-8.7,17.6-18.4,18.7C294.9-62.1,288.9-66.9,288.8-74.5z M295-80.1
	c0.3,0,0.5,0,0.7-0.1c2.1-1.8,4.2-3.5,6.2-5.5c0.3-0.3,0-1.7-0.4-2.1c-0.6-0.4-1.4-0.5-2.1-0.3c-2.4,0.8-4.8,4.4-4.8,6.9
	C294.6-80.8,294.8-80.4,295-80.1L295-80.1z"/>
<path class="st1" d="M41.5-80.7c1.2,0,2.3-0.1,3.5,0s2.2,0.3,3.3,0.4c-0.8,0.7-1.9,1.3-2.2,2.1c-1.4,3.3-2.6,6.7-3.5,10.2
	c-0.4,1.9-0.9,3.1-2.8,3.3c-4.2,0.6-8.5,1.7-12.8,1.5c-10.5-0.6-16.3-8.8-14-19c2.5-11.5,12.3-19.4,25.2-20.1
	c3.6-0.2,7.3,0.6,10.9,1c1.7,0.2,2.3,1.1,1.7,2.8c-0.4,1.1-0.7,2.2-1.1,3.3s-1,2-1.5,2.9c-0.4-1-0.8-1.9-1.1-2.9
	c-0.9-3.5-1.8-4.8-5.4-4.8c-3.4,0-6.8,0.7-10,2.1C24-94.2,18.6-83.2,19.8-74.6c0.8,6,5,9.8,10.7,9.6c2.8-0.1,4.8-1.2,5.8-3.9
	c0.6-1.7,1.2-3.4,1.7-5.2c0.9-3.3,0.9-3.3-2.7-4.9c-0.4-0.2-0.8-0.5-1.1-0.8c0.5-0.3,0.9-0.9,1.3-0.9C37.5-80.7,39.5-80.6,41.5-80.7
	L41.5-80.7z"/>
<path class="st2" d="M379.8-80.7c1.2,0,2.3,0,3.5,0s2.3,0.2,3.4,0.3c-0.8,0.7-1.8,1.3-2.2,2.1c-1.4,3.1-3.2,6.3-3.7,9.6
	c-0.4,2.9-1.5,4.1-4.1,4.5c-3.6,0.5-7.2,1.3-10.8,1.2c-10.8-0.4-16.9-8.5-14.6-19c2.1-9.9,8.4-15.9,17.8-19c5.9-1.9,12.2-2,18.2-0.5
	c2,0.5,2.4,1.4,1.7,3.2c-0.3,0.8-0.5,1.6-0.8,2.4c-0.5,1.2-1.1,2.3-1.6,3.4c-0.5-1.1-0.8-2.2-1.2-3.3c-0.4-2.4-2.4-4.2-4.8-4.3
	c-4.8-0.7-9.8,0.7-13.5,3.9c-7.2,6.2-10.4,13.9-8.7,23.4c1.2,6.6,7.4,8.1,11.7,7.6c1.3-0.1,2.5-0.8,3.2-1.9c1.4-3,2.4-6.1,3.2-9.3
	c0.4-1.9-1.4-2.3-3-2.5c-0.5-0.1-0.9-0.8-1.3-1.2c0.5-0.3,1.1-0.5,1.7-0.7C375.8-80.8,377.8-80.7,379.8-80.7L379.8-80.7z"/>
<path class="st2" d="M451.4-71.1c-0.8,1.4-1.8,2.7-2.9,3.9c-1.6,1.4-3.4,2.6-5.4,3.5c-4.5,1.9-7.1-0.1-6.7-5c0-1,0.2-2,0.5-2.9
	c1.7-5.8,5.7-10.7,11.1-13.5c2.4-1.1,5-1.6,7.6-1.4c1.8,0,2.3-0.4,2.8-1.8c1-3,2.1-5.9,3.1-8.9c0.3-0.8,0.5-1.6,0.5-2.4
	c-0.2-1.2-0.5-2.3-0.9-3.5c1.7-0.5,3.5-0.9,5.3-1.3c2.7-0.3,3,0.1,2.1,2.6c-3.2,9.2-6.4,18.5-9.5,27.7c-0.4,0.9-0.7,1.9-0.9,2.8
	c-0.2,1.2-0.2,2.5-0.3,3.8c1.1-0.6,2.3-1.2,3.4-1.8c0.3-0.2,0.5-0.5,0.8-0.6c0.6-0.2,1.1-0.3,1.7-0.4c-0.1,0.6-0.3,1.2-0.7,1.7
	c-2.1,2.6-4.9,4.5-8.2,5.5c-2.4,0.6-3.5-0.4-3.2-2.8c0.3-1.4,0.6-2.8,1-4.2L451.4-71.1z M442.4-65.9c0.5-0.1,1-0.3,1.5-0.5
	c5.5-3.5,9.7-8.1,11.7-14.3c0.3-1.1,0.3-3-0.4-3.6c-1.4-1.3-2.8,0.2-3.8,1.1c-4.1,3.9-7.4,8.6-9.4,13.9c-0.3,0.8-0.4,1.6-0.4,2.4
	C441.7-66.6,442.2-66.2,442.4-65.9L442.4-65.9z"/>
<path class="st2" d="M157.3-78.5c0.5-1,1.1-2,1.8-2.9c1.7-1.6,3.5-3,5.5-4.3c2-1.3,4.4-2,6.6-0.5s1.8,3.9,1.3,5.9
	c-1.4,5.9-3.5,11.5-8.5,15.3c-1.5,1.1-3.6,1.4-5.5,1.8c-0.4,0.1-1.1-1.3-1.7-2c0.7-0.5,1.7-1.5,2.1-1.3c2.6,1.3,3.3-0.4,3.9-2.2
	c1.3-3.9,2.6-7.8,3.7-11.8c0.2-0.8-0.2-1.9-0.4-2.8c-1,0.3-2.4,0.2-3.1,0.9c-2.4,2.3-4.6,4.7-6.6,7.4c-1.9,2.7-3.3,5.7-5,8.5
	c-0.5,1.1-1.1,2-1.9,2.9c-0.8,0.6-1.8,0.7-2.7,0.4c-0.7-0.6-1-1.5-0.9-2.4c0.3-1.3,0.7-2.6,1.2-3.8c3.1-8.9,6.2-17.8,9.2-26.7
	c0.6-1.8,1.9-3.7-0.1-5.5c-0.1-0.1,0.4-1.6,0.8-1.7c2.2-0.4,4.5-0.6,6.8-0.9c-0.3,2-0.7,4-1.3,5.9c-1.8,5.3-3.8,10.6-5.6,15.9
	c-0.4,1-0.6,2.1-1,3.1L157.3-78.5z"/>
<path class="st2" d="M563.9-102.6c2,0.1,3.2,0.1,4.4,0.3c6.9,1,7.9,3.1,4.5,9.2c-0.2,0.3-0.8,0.7-1.1,0.6c-0.4-0.2-0.7-0.6-0.8-1.1
	c-0.2-2.2-0.1-4.4-2.4-5.6c-2.4-1.3-5.2-1.5-7.7-0.5c-3,1.3-6.2,2.7-8.5,4.8c-5.9,5.3-8.3,12.2-7.6,20.1c0.4,4,2,7.4,6,9
	s7.9,0.7,11.2-1.9c1.7-1.3,3-3.1,4.6-4.5c0.4-0.3,1.1-0.3,1.7-0.5c0,0.5,0.3,1,0.1,1.4c-0.9,2-1.8,3.9-2.9,5.7
	c-0.5,0.8-1.3,1.4-2.3,1.6c-4.9,1-9.8,1.8-14.8,0.3c-6.8-2-10.5-6.7-10.7-13.7c-0.2-10.9,8.2-21.5,19.3-24
	C559.5-102,562.1-102.3,563.9-102.6z"/>
<path class="st2" d="M217.9-72.1c-2.3,2.1-4.5,4.3-6.9,6.3c-1,0.9-2.1,1.6-3.4,2.1c-1.1,0.3-2.8,0.5-3.6-0.1
	c-0.8-0.9-1.2-2.2-0.9-3.5c1.2-3.8,2.7-7.5,4.1-11.2c0.3-0.9,0.8-1.8,1.1-2.8c0-0.5-0.2-0.9-0.5-1.2c-0.1-0.1-0.7,0-0.9,0.1
	c-0.8,0.5-1.5,1.3-2.4,1.7c-0.5,0.2-1.1,0.3-1.7,0.3c0.2-0.6,0.3-1.4,0.7-1.7c2.6-1.7,5.1-3.7,8-4.7s4.1,0.7,3.1,3.5
	c-1.6,4.5-3.5,8.9-5.2,13.4c-0.1,0.6,0,1.2,0.1,1.8c0.6-0.2,1.5-0.1,1.8-0.5c3.2-3.8,6.4-7.5,9.4-11.5c1.1-1.7,2.1-3.4,2.9-5.2
	c0.4-0.7,1-1.5,1.7-1.6c1-0.2,1.9,0,2.8,0.5c0.4,0.2,0.4,1.5,0.1,2.2c-1.5,4.2-3.2,8.3-4.7,12.5c-0.4,0.9-0.7,1.9-1,2.8
	c-0.1,0.3,0.1,0.8,0.2,0.9c0.4,0.2,0.9,0.2,1.3,0c0.8-0.5,1.5-1.2,2.4-1.7c0.6-0.3,1.3-0.5,2-0.6c-0.2,0.6-0.2,1.5-0.7,1.7
	c-2.7,1.9-5.5,3.6-8.4,5.1c-2.2,1-3.4-0.4-2.7-2.9c0.5-1.9,1.2-3.7,1.9-5.5L217.9-72.1z"/>
<path class="st2" d="M604.7-78.4c2-1.9,4.1-3.8,6.2-5.5c1.7-1.3,3.6-2.3,5.7-2.8c2.8-0.7,4.2,0.6,4,3.4c-0.2,1.8-0.6,3.6-1.3,5.2
	c-1.1,2.9-2.4,5.8-3.6,8.7c-0.2,0.5,0.1,1.2,0.1,1.8c0.5-0.1,0.9-0.2,1.3-0.4c0.4-0.2,0.8-0.7,1.2-0.9c0.9-0.4,1.8-0.8,2.8-1.2
	c-0.6,0.9-1,2.2-1.8,2.8c-2,1.5-4.1,2.8-6.3,3.8c-1.2,0.5-2.5,0.3-3.6-0.3c-0.6-0.6-0.5-2.4-0.1-3.5c1.4-3.9,3.1-7.7,4.7-11.5
	c0.4-0.9,0.7-1.8,0.9-2.8c0-0.6,0-1.2-0.2-1.8c-0.8,0.1-1.8-0.1-2.2,0.4c-2,1.7-3.8,3.7-5.3,5.8c-2.3,3.4-4.2,7.1-6.3,10.7
	c-0.5,0.9-0.8,2-1.5,2.5c-0.9,0.6-1.9,0.8-3,0.7c-0.4-0.1-1-1.7-0.7-2.5c0.9-3.2,2.1-6.2,3.2-9.4c0.6-1.5,1.2-3.1,1.7-4.7
	c0.2-0.9,0.2-1.8,0.2-2.7c-0.9,0.3-1.8,0.5-2.7,0.8c-0.4,0.2-0.8,0.5-1.3,0.7c-0.3,0.1-0.6,0-0.8-0.2c-0.1-0.3-0.1-0.6,0-0.9
	c2.1-2.4,4.6-4.3,7.9-4.6c2.3-0.2,3.1,0.7,2.6,3C606.1-82,605.3-80.2,604.7-78.4z"/>
<path class="st2" d="M126.3-78c1.7-1.8,3.4-3.6,5.1-5.4c0.7-0.7,1.5-1.4,2.3-1.9c2.2-1.4,4.7-2.6,7-0.9s1.1,4.3,0.3,6.5
	c-1.2,3.2-2.7,6.4-4,9.6c-0.2,0.8-0.2,1.6-0.2,2.3c0.7-0.2,1.4-0.4,2.1-0.7c1.1-0.5,2.1-1.2,3.2-1.8c-0.7,1.2-1,2.7-2.1,3.5
	c-2,1.4-4.2,2.6-6.5,3.5c-1.1,0.3-2.2,0.1-3.1-0.6c-0.5-0.6-0.5-2.2-0.1-3.1c1.6-4.2,3.4-8.2,5-12.4c0.3-1.3,0.5-2.7,0.5-4.1
	c-1.2,0.6-3,0.9-3.7,1.9c-3.2,4.4-6.2,8.9-9.2,13.5c-0.8,1.2-1.2,2.8-2.2,3.9c-0.6,0.7-1.9,0.8-2.9,1.1c-0.3-1-1.1-2.1-0.9-2.9
	c1-3.3,2.3-6.5,3.5-9.8c0.4-0.9,0.7-1.8,1-2.8c0.3-1.2,0.5-2.5,0.7-3.7c-1.2,0.3-2.3,0.7-3.5,1c-0.4,0.1-0.9,0.2-1.3,0.2
	c0.1-0.6,0-1.3,0.3-1.7c2.2-2.1,4.5-3.9,7.7-4.1c1.9-0.1,2.9,0.8,2.4,2.7s-1.2,3.7-1.9,5.6L126.3-78z"/>
<path class="st2" d="M498.5-77.8c2.6-2.5,4.6-4.7,6.9-6.4c1.9-1.3,4-2.2,6.2-2.6c1.9-0.4,3.2,0.9,3,3c-0.2,1.8-0.6,3.6-1.2,5.3
	c-0.7,2-1.7,4-2.4,6c-0.5,1.6-0.8,3.3-1.2,5c1.3-0.8,2.7-1.7,4-2.5c0.3-0.1,0.6-0.2,0.9-0.2c0.1,0.4,0.3,1,0.2,1.3
	c-2.2,3.2-5.5,5.4-9.4,6c-2.3,0.4-3.5-1.1-2.6-3.3c1.1-3,2.4-5.8,3.6-8.7c0.8-2,1.6-4,2.3-6c0.1-0.8,0.1-1.5,0-2.3
	c-0.9,0.2-2,0.2-2.6,0.7c-1.8,1.5-3.3,3.1-4.7,5c-2.3,3.4-4.2,7.1-6.3,10.7c-0.6,1-0.9,2.3-1.8,3c-0.9,0.6-2,0.8-3,0.7
	c-0.4-0.1-0.9-1.8-0.7-2.5c0.9-3,2-5.9,3.1-8.9c0.4-0.9,0.8-1.8,1.1-2.8c0.4-1.7,0.7-3.4,1-5c-1.3,0.5-2.6,1.1-4,1.6
	c-0.3,0.1-0.6,0-0.8-0.2c-0.1-0.3-0.1-0.6,0-0.9c1.2-2.3,6.4-5,8.9-4.7c1.9,0.2,2,1.5,1.7,2.9C500.1-82.1,499.3-80.3,498.5-77.8z"/>
<path class="st2" d="M402.2-71c-2.5,2.1-4.2,3.8-6.2,5.2c-1.3,1-2.8,1.8-4.4,2.3c-3.1,1.1-5.3-0.7-4.8-4c0.2-1,0.4-1.9,0.8-2.8
	c2.3-5.6,6.2-10.3,11.2-13.7c2.2-1.5,4.5-2.7,7.5-2c0.7,0.2,1.6-0.6,2.3-1c0.5-0.3,1-0.9,1.5-1.1c1-0.4,2.2,0,2.6,1
	c0.2,0.6,0.2,1.2-0.1,1.7c-1.5,4.2-3.2,8.3-4.8,12.5c-0.3,0.6-0.5,1.2-0.7,1.9c-0.3,1.2-0.5,2.5-0.7,3.7c1.2-0.5,2.3-1,3.5-1.6
	c0.4-0.3,0.8-0.5,1.3-0.7c0.3-0.1,0.6,0,0.8,0.3c0.1,0.3,0.1,0.6-0.1,0.9c-2.2,2.7-5.3,4.6-8.8,5.3c-1.9,0.4-2.9-0.6-2.6-2.5
	C401.1-67.4,401.6-69.2,402.2-71z M393.4-69.2c0.2,0.6,0.5,1.4,0.7,2.1c0.6-0.1,1.2-0.3,1.8-0.6c4-3,7.2-6.9,9.2-11.5
	c0.6-1.4,1.3-3.2-0.2-4c-1.4-0.4-2.9-0.1-4,0.7C396.7-79.1,394.7-74.5,393.4-69.2L393.4-69.2z"/>
<path class="st2" d="M190-87.6c4.7,0.5,7.2,2.7,7.6,7c0.7,7.1-4.8,15.2-11.6,17.2c-6.3,1.8-11.2-2.4-10-8.7
	c0.7-4.8,3.2-9.1,7.1-12.1C185.1-85.7,187.6-86.4,190-87.6z M181.1-68.8l1.7,3.5c1.3-0.8,3-1.3,4-2.3c3.4-3.8,4.7-8.7,5.5-13.5
	c0.2-1.1-0.5-2.9-1.3-3.3s-2.6,0.3-3.4,1.2C184.1-79.5,182.2-74.7,181.1-68.8z"/>
<path class="st2" d="M643.6-70c0.3-6.6,6.4-14.5,12.7-16.5c1-0.3,2-0.4,3-0.4c2.2-0.2,3.9,0.6,4.8,2.7c0.8,1.8,0.1,3.8-1.5,4.8
	c-3.2,2.1-6.6,3.8-10.1,5.2c-2.4,0.9-3,2.4-2.8,4.5c0.2,2.5,1.7,3.6,4,2.9c1.4-0.4,2.6-1.5,3.9-2.1c0.6-0.1,1.1-0.2,1.7-0.2
	c-0.2,0.6-0.3,1.4-0.7,1.7c-2.2,1.4-4.3,3.2-6.8,4C646.6-61.8,643.3-64.6,643.6-70z M651.8-76.1c2.7,0.1,7.6-5,7.2-7.4
	c-0.1-0.5-1.4-1.2-1.7-1c-3.1,1.6-4.8,4.3-6,7.5C651.1-76.8,651.6-76.4,651.8-76.1L651.8-76.1z"/>
<path class="st2" d="M249.6-70c0.2-6.4,6-14.2,12-16.3c3.7-1.3,6.9-0.6,8,1.7c1.1,2.5-0.1,5.2-3.6,7.2c-2.5,1.3-5.1,2.4-7.7,3.4
	c-2.2,0.9-3.3,3.4-2.5,5.6c0,0.1,0.1,0.2,0.1,0.3c0.8,1.7,2.7,1.9,5.2,0.7c0.4-0.3,0.8-0.5,1.3-0.8c0.9-0.3,1.9-0.6,2.9-0.9
	c-0.6,0.9-1,2.1-1.9,2.7c-1.6,1.2-3.3,2.1-5.2,2.8C252.7-61.7,249.3-64.3,249.6-70z M257.6-76.1c2.8-0.2,7-4.4,7.1-6.7
	c0-0.6-0.3-1.2-0.7-1.7c-0.5-0.2-1-0.1-1.4,0.2c-1.9,2.3-3.7,4.6-5.5,6.9C257-77.2,257.4-76.5,257.6-76.1L257.6-76.1z"/>
<path class="st2" d="M466.5-70c0.3-6.4,6-14.1,12.1-16.3c0.5-0.2,1-0.3,1.5-0.4c3.3-0.7,5.6,0.1,6.5,2.1c1,2.2,0,4.9-3,6.6
	c-2.8,1.5-5.6,2.8-8.6,3.9c-2.3,1-3.3,3.7-2.3,6c0,0,0,0,0,0c0.8,1.7,2.7,1.9,5.2,0.7c0.6-0.3,1.1-0.8,1.7-1
	c0.8-0.3,1.6-0.5,2.5-0.7c-0.4,0.7-0.6,1.6-1.1,2c-1.8,1.4-3.8,2.6-5.9,3.5C469.7-61.7,466.2-64.4,466.5-70z M474.5-76.2
	c2.8,0.2,7.5-4.7,7.1-7.2c-0.3-0.6-1-1-1.7-1.1c-1.8,0.3-5.8,5.4-6,7.3C473.9-76.8,474.4-76.4,474.5-76.2L474.5-76.2z"/>
<path class="st2" d="M572.4-69.7c0.1-7.2,6.8-15.5,13.8-17c2.9-0.6,5.2,0.1,6.2,1.9c1.1,2,0.5,4.8-2.1,6.4c-2.9,1.6-5.9,3.1-9,4.3
	c-2.6,1.1-3.2,2-2.9,4.8c0.2,2.1,1.5,3.1,3.4,2.6c1.7-0.5,3.2-1.6,4.8-2.4c0.4-0.1,0.9-0.1,1.3-0.1c0,0.4,0.1,1-0.1,1.3
	c-2.4,3-6,4.9-9.9,5C574.4-62.9,572.4-65.5,572.4-69.7z M587.7-83.6c-0.5-0.2-1.4-1-1.9-0.8c-3.2,1.3-4.4,4.3-5.8,7.2
	c-0.1,0.2,0.8,1.1,1.1,1.1C583.8-76.6,587.6-80.7,587.7-83.6z"/>
<path class="st1" d="M71.5-69.7c0.1-6.6,6-14.7,12.3-16.7c3.3-1.1,6.6-0.4,7.7,1.6c1.2,2.4,0,5.4-3.5,7.3c-2.5,1.3-5.1,2.4-7.7,3.4
	c-2.4,1-3.7,4.4-2.3,6.4c1.2,1.7,3,1.3,4.5,0.6c1.3-0.7,2.6-1.5,3.8-2.4c0.3-0.1,0.6,0,0.9,0.2c0.1,0.3,0.2,0.6,0.1,0.9
	c-1.5,3.1-8.4,6.2-11.7,5.3C72.8-63.9,71.4-66.1,71.5-69.7z M86.7-83.4c-0.3-1.6-1.6-1.8-2.4-0.8c-1.9,2.2-3.6,4.5-5.2,6.9
	c-0.1,0.1,0.7,1,0.9,1C83.1-76.8,86.8-80.7,86.7-83.4z"/>
<path class="st1" d="M93.5-69.8c0.2-6.7,6-14.6,12.3-16.6c0.8-0.2,1.6-0.4,2.5-0.4c2-0.2,4.1-0.1,5.2,2c1.1,2.2,0.2,4.9-1.9,6.1
	c-2.9,1.8-6.2,3-9.3,4.6c-1,0.5-2.5,1.5-2.6,2.4c-0.2,1.5,0,3.7,1,4.4s3.1,0,4.6-0.3c1.3-0.4,2.6-1,3.8-1.6
	c-0.8,1.3-1.7,2.5-2.8,3.6c-1.3,1-2.8,1.7-4.4,2.2C96.6-61.8,93.4-64.3,93.5-69.8z M101.7-76c2.7-0.5,6.5-4,6.9-6.3
	c0.1-0.8-0.1-1.5-0.5-2.2c-0.6-0.2-1.2-0.1-1.8,0.3c-1.8,2.2-3.6,4.6-5.2,7C100.9-77.1,101.5-76.4,101.7-76L101.7-76z"/>
<path class="st2" d="M639.6-89.6c-1.8,3.3-0.1,3.8,2.6,3.8c0.6,0,1.2,0.7,1.8,1.1c-0.6,0.4-1.3,0.7-2,1c-0.7,0.1-1.3,0.2-2,0.1
	c-1.6-0.2-3,0.8-3.3,2.4c-1.2,3.6-2.6,7.2-3.8,10.8c-0.1,0.8-0.1,1.6,0,2.3c0.7-0.2,1.4-0.4,2.2-0.6c0.1,0,0.2-0.2,0.4-0.3l3.6-2.2
	c0.7,2.2-1.3,2.8-2.4,3.8c-1.5,1.3-3.1,2.5-4.9,3.3c-1.4,0.6-3.1,0.5-4.7,0.7c-0.1-1.6-0.6-3.2-0.3-4.7c0.6-2.4,1.4-4.8,2.3-7.1
	c0.6-1.7,1.1-3.5,1.8-5.2s0.9-3.3-1.8-3.3c-0.4,0-0.7-0.5-1.1-0.8c0.3-0.3,0.6-1,0.9-1c3.8,0.2,5.4-2.7,7.3-5.2
	c0.7-0.6,1.6-0.9,2.5-0.9C639.1-91.5,639.4-90.2,639.6-89.6z"/>
<path class="st1" d="M61.4-79.2c1.2-1.6,2.2-3.2,3.5-4.7c0.8-1,1.8-1.9,3-2.6c1.3-0.8,3-0.5,3.8,0.8c0.1,0.2,0.2,0.4,0.3,0.6
	c0.7,1.7-0.4,4.8-1.9,5.1c-0.8,0-1.5-0.4-1.9-1c-1.2-2.3-2.4-1.4-3.3,0c-1.8,2.9-3.5,6-5.2,9c-1.1,2-2,4.2-2.9,6.3
	c-0.7,1.6-1.5,3.2-3.6,2.5c-2.3-0.8-1.4-2.6-0.9-4.1c1.4-4.1,2.8-8.1,4.1-12.2c0.2-0.9,0.2-1.9,0.1-2.8c-0.9,0.2-1.7,0.4-2.6,0.7
	c-0.6,0.2-1.1,0.4-1.7,0.6c0.2-0.7,0.1-1.7,0.5-2.1c1.8-1.4,3.6-3,5.7-3.7c2.3-0.8,3.4,0.6,3.2,3c-0.2,1.4-0.5,2.8-0.9,4.2
	L61.4-79.2z"/>
<path class="st2" d="M425.5-77.5c2.6-3.2,4.4-5.6,6.3-7.8c1.3-1.5,3.2-2.2,4.8-0.9s1.1,3.4,0.1,5s-2.2,2.3-3.2,0
	c-1-2-2.2-1.4-2.9-0.1c-2.2,3.5-4.1,7.1-6.1,10.8c-0.9,1.7-1.7,3.6-2.5,5.4s-2.1,2.7-4,1.8c-1.6-0.8-0.9-2.2-0.5-3.5
	c1.5-4.4,3-8.7,4.5-13.2c0.2-0.9,0.2-1.9,0.2-2.8c-0.8,0.3-1.7,0.6-2.5,0.9c-0.3,0.1-0.5,0.5-0.8,0.6c-0.4,0.1-0.9,0.2-1.3,0.3
	c0-0.4-0.2-1.1,0.1-1.3c1.2-1.3,2.4-2.9,4-3.7c1.4-0.7,3.1-0.8,4.6-0.2c0.6,0.2,0.6,2.6,0.5,4C426.4-80.7,426-79.1,425.5-77.5z"/>
<path class="st2" d="M676.2-78.4c1.2-1.7,2.3-3.4,3.6-5c0.6-0.8,1.3-1.5,2.1-2.1c1.9-1.5,3.7-1.7,4.8-0.4c1.3,1.9,0.8,4.4-1,5.7
	c-0.8,0.2-1.7-0.1-2.3-0.7c-1.3-2-2.4-1.5-3.3,0c-2.3,3.8-4.4,7.7-6.5,11.7c-0.9,1.6-1.5,3.3-2.3,4.9c-0.4,1.1-1.7,1.7-2.9,1.3
	c-0.2-0.1-0.3-0.2-0.5-0.3c-0.7-0.8-1-1.9-0.7-2.9c1.4-4.7,3.2-9.4,4.7-14.1c0.1-0.9,0.1-1.8,0-2.7c-0.7,0.3-1.5,0.6-2.2,1
	c-0.4,0.2-0.7,0.7-1.2,0.9c-0.4,0.1-0.9,0.1-1.3,0c0-0.5,0.1-0.9,0.3-1.3c0.5-0.8,1.2-1.6,1.9-2.3c2-1.8,5.2-2.8,6.3-1.8
	c1.8,1.6,0.8,3.7,0.5,5.5c-0.1,0.8-0.4,1.5-0.6,2.2L676.2-78.4z"/>
<path class="st2" d="M233.9-63c-1-0.3-1.9-0.8-2.8-1.4c-1.2-0.8-1.6-2.4-0.8-3.6c0.1-0.1,0.2-0.2,0.3-0.3c1.2-1.6,2.2-0.5,3.3,0.3
	c1.5,1.2,3.3,3,5.2,1.1s0-3.7-1-5.3c-0.7-1.1-1.6-2.1-2.3-3.3c-1.7-2.8-1.3-5.4,0.7-7.8c2.2-2.6,4.8-4.2,8.3-3.3
	c1.7,0.3,2.9,1.8,2.7,3.6c-0.1,1.7-1.3,2.4-2.7,1.6c-1.1-0.8-2.2-1.5-3.3-2.1c-0.8-0.2-1.6,0.1-2.2,0.6c-0.4,0.7-0.5,1.5-0.2,2.2
	c0.9,1.6,2.1,2.9,3.1,4.5c1.7,2.7,2.2,5.5,0.7,8.5C241.5-65.1,237.7-62.9,233.9-63z"/>
<path class="st0" d="M303.4,149.7c-0.2-0.3-0.4-0.7-0.5-1.1c0-2.5,2.4-6.1,4.8-6.9c0.7-0.2,1.5-0.1,2.1,0.3c0.4,0.5,0.7,1.8,0.4,2.1
	c-2,1.9-4.1,3.7-6.2,5.5C304,149.7,303.8,149.7,303.4,149.7z"/>
<path class="st0" d="M379.9-71.5c-0.3-0.3-0.8-0.7-0.8-1c0-0.8,0.1-1.6,0.4-2.4c2.1-5.3,5.3-10,9.4-13.8c1-1,2.4-2.4,3.8-1.1
	c0.7,0.6,0.7,2.5,0.4,3.6c-2,6.3-6.2,10.8-11.7,14.3C380.9-71.8,380.4-71.6,379.9-71.5z"/>
<path class="st0" d="M401.8,160.6c1.3-5.2,3.4-9.9,7.5-13.3c1.1-0.8,2.6-1.1,4-0.7c1.6,0.8,0.9,2.6,0.2,4c-2.1,4.5-5.2,8.5-9.2,11.5
	c-0.6,0.3-1.2,0.5-1.8,0.6C402.2,162,402,161.2,401.8,160.6z"/>
<path class="st0" d="M189.5,161c1.1-6,3-10.7,6.5-14.5c0.8-0.8,2.6-1.5,3.4-1.2s1.5,2.2,1.3,3.3c-0.8,4.9-2.1,9.7-5.5,13.5
	c-1,1.1-2.6,1.6-4,2.3L189.5,161z"/>
<path class="st0" d="M660.1,153.7c-0.1-0.3-0.6-0.7-0.5-1c1.2-3.2,2.9-5.9,6-7.5c0.3-0.2,1.6,0.6,1.7,1
	C667.7,148.6,662.8,153.8,660.1,153.7z"/>
<path class="st0" d="M266,153.7c-0.1-0.4-0.5-1.1-0.4-1.4c1.8-2.4,3.6-4.7,5.5-6.9c0.4-0.3,0.9-0.3,1.4-0.2c0.4,0.5,0.7,1.1,0.7,1.7
	C273,149.3,268.7,153.5,266,153.7z"/>
<path class="st0" d="M482.9,153.6c-0.2-0.3-0.6-0.6-0.5-1c0.2-2,4.2-7,6-7.3c0.7,0,1.3,0.4,1.7,1.1
	C490.5,148.9,485.7,153.8,482.9,153.6z"/>
<path class="st0" d="M596.1,146.2c-0.1,3-3.9,7-6.6,7.4c-0.3,0-1.2-0.9-1.1-1.1c1.4-2.8,2.6-5.8,5.8-7.2
	C594.7,145.2,595.6,146,596.1,146.2z"/>
<path class="st0" d="M95.1,146.4c0.1,2.7-3.6,6.6-6.7,7c-0.3,0-1-0.9-0.9-1c1.6-2.4,3.4-4.7,5.2-6.9
	C93.6,144.6,94.8,144.8,95.1,146.4z"/>
<path class="st0" d="M110.1,153.8c-0.2-0.3-0.8-1-0.6-1.2c1.7-2.4,3.4-4.7,5.2-7c0.5-0.4,1.2-0.5,1.8-0.3c0.4,0.7,0.6,1.5,0.5,2.2
	C116.6,149.7,112.7,153.3,110.1,153.8z"/>
</svg>
