<?xml version="1.0" encoding="UTF-8"?> <svg xmlns="http://www.w3.org/2000/svg" width="268" height="82" viewBox="0 0 268 82" fill="none"><path d="M167.151 36.6842H161.346V53.1523H155.314V36.6842H142.85V30.9487L155.712 6.81439H161.346V30.7784H167.151V36.6842ZM155.314 30.8352V18.6828V18.0014L148.2 30.8352H155.314Z" fill="white"></path><path d="M155.427 75.6966H158.558V74.9584H156.167V72.9709H158.558V72.2326H156.167V70.813H158.558V70.0179H155.427V75.6966Z" fill="white"></path><path d="M155.428 75.6967V75.8102H158.672V74.8449H156.281V73.0845H158.672V72.1191H156.281V70.9266H158.672V69.9044H155.314V75.8102H155.428V75.6967H155.541V70.1316H158.444V70.6994H156.054V72.3462H158.444V72.8573H156.054V75.0152H158.444V75.5831H155.428V75.6967H155.541H155.428Z" fill="white"></path><path d="M170.509 75.072C169.883 75.072 169.314 74.8448 168.859 74.4473C168.403 73.993 168.176 73.4819 168.176 72.8573C168.176 72.2326 168.403 71.7216 168.859 71.2673C169.314 70.813 169.826 70.6426 170.452 70.6426C171.135 70.6426 171.704 70.8698 172.103 71.2673C172.558 71.7216 172.786 72.2326 172.786 72.8573C172.786 73.4819 172.558 74.0498 172.046 74.5041L171.192 73.5955H170.168L171.42 74.9016C171.078 75.0152 170.794 75.072 170.509 75.072ZM173.639 72.8005C173.639 72.0055 173.355 71.324 172.729 70.6994C172.103 70.1315 171.363 69.8476 170.509 69.8476C169.656 69.8476 168.916 70.1315 168.29 70.6994C167.664 71.2673 167.379 72.0055 167.379 72.8005C167.379 73.6523 167.664 74.3905 168.29 74.9584C168.916 75.5263 169.656 75.867 170.509 75.867C171.021 75.867 171.534 75.7534 172.046 75.4695L172.558 75.9805H173.582L172.672 75.0152C173.298 74.4473 173.639 73.7091 173.639 72.8005Z" fill="white"></path><path d="M170.509 75.072V74.9584C169.883 74.9584 169.371 74.7312 168.916 74.3337C168.46 73.9362 168.29 73.4251 168.29 72.8573C168.29 72.2894 168.517 71.7783 168.916 71.3808C169.371 70.9833 169.826 70.7562 170.452 70.7562C171.078 70.7562 171.647 70.9833 172.046 71.3808C172.501 71.7783 172.672 72.2894 172.672 72.8573C172.672 73.4819 172.444 73.993 171.989 74.3905L172.046 74.4473L172.103 74.3905L171.192 73.4251H169.883L171.306 74.9584L171.363 74.9016L171.306 74.788C170.965 74.9016 170.68 74.9584 170.395 74.9584V75.072V75.1855C170.68 75.1855 171.021 75.1288 171.363 75.0152L171.534 74.9584L170.339 73.7091H171.078L171.989 74.6745L172.046 74.6177C172.558 74.1634 172.786 73.5387 172.786 72.9141C172.786 72.2894 172.558 71.7216 172.103 71.2673C171.648 70.813 171.021 70.5858 170.339 70.5858C169.656 70.5858 169.086 70.813 168.631 71.2673C168.176 71.7216 167.948 72.2894 167.948 72.9141C167.948 73.5387 168.176 74.1066 168.688 74.5609C169.143 75.0152 169.769 75.2423 170.452 75.2423V75.072H170.509ZM173.639 72.8005H173.753C173.753 71.9487 173.412 71.2673 172.786 70.6426C172.16 70.0179 171.363 69.734 170.509 69.734C169.599 69.734 168.859 70.0179 168.233 70.6426C167.607 71.2673 167.265 72.0055 167.265 72.8005C167.265 73.6523 167.607 74.4473 168.233 75.0152C168.859 75.6398 169.656 75.9238 170.509 75.9238C171.021 75.9238 171.534 75.8102 172.103 75.5263L172.046 75.4127L171.989 75.4695L172.501 76.0373H173.81L172.729 74.9016L172.672 74.9584L172.729 75.0152C173.412 74.3905 173.753 73.5955 173.753 72.6869H173.639H173.526C173.526 73.5955 173.184 74.2769 172.558 74.9016L172.501 74.9584L173.298 75.8102H172.558L172.046 75.2423L171.989 75.2991C171.477 75.5263 170.965 75.6398 170.509 75.6398C169.656 75.6398 168.973 75.3559 168.347 74.788C167.777 74.2202 167.493 73.5387 167.493 72.6869C167.493 71.8919 167.777 71.2105 168.404 70.6426C169.03 70.0747 169.712 69.7908 170.566 69.7908C171.42 69.7908 172.103 70.0747 172.729 70.6426C173.355 71.2105 173.639 71.8919 173.639 72.6301V72.8005Z" fill="white"></path><path d="M183.087 73.3684C183.087 74.1634 183.314 74.788 183.713 75.2423C184.111 75.6398 184.68 75.867 185.363 75.867C186.046 75.867 186.559 75.6398 186.957 75.2423C187.355 74.8448 187.526 74.277 187.526 73.5955V70.0179H186.729V73.6523C186.729 74.1066 186.615 74.5041 186.331 74.7313C186.103 75.0152 185.705 75.1288 185.25 75.1288C184.794 75.1288 184.453 75.0152 184.168 74.7313C183.941 74.4473 183.77 74.0498 183.77 73.5387V70.0747H182.973V73.3684H183.087Z" fill="white"></path><path d="M183.087 73.3684H182.973C182.973 74.2202 183.201 74.8449 183.599 75.2992C183.997 75.7535 184.623 75.9806 185.306 75.9806C185.989 75.9806 186.559 75.7535 186.957 75.2992C187.355 74.8449 187.583 74.277 187.583 73.5388V69.8477H186.615V73.5956C186.615 74.0499 186.502 74.3906 186.274 74.6177C186.046 74.8449 185.705 74.9585 185.306 74.9585C184.851 74.9585 184.567 74.8449 184.339 74.5609C184.111 74.277 183.997 73.9363 183.997 73.4252V69.8477H183.03V73.3116H183.087H183.201V70.1316H183.77V73.5388C183.77 74.0499 183.884 74.5042 184.168 74.7881C184.453 75.072 184.851 75.2424 185.306 75.2424C185.762 75.2424 186.16 75.1288 186.445 74.8449C186.729 74.5609 186.843 74.1634 186.843 73.6524V70.1316H187.412V73.5956C187.412 74.277 187.241 74.7881 186.843 75.1856C186.445 75.5831 185.989 75.7535 185.306 75.7535C184.623 75.7535 184.168 75.5263 183.77 75.1288C183.371 74.7313 183.201 74.1634 183.201 73.3116H183.087V73.3684Z" fill="white"></path><path d="M198.169 70.0179H197.429V75.6966H198.169V70.0179Z" fill="white"></path><path d="M197.429 75.6967V75.8102H198.282V69.9044H197.315V75.8102H197.429V75.6967H197.543V70.1316H198.112V75.5831H197.429V75.6967H197.543H197.429Z" fill="white"></path><path d="M210.632 70.9834C210.86 71.1537 210.974 71.3809 210.974 71.6648C210.974 72.0056 210.86 72.2895 210.576 72.4031C210.291 72.5734 209.836 72.6302 209.267 72.6302V70.6995C209.949 70.6995 210.405 70.813 210.632 70.9834ZM208.47 75.6967H209.21V73.3684C210.063 73.3684 210.689 73.1981 211.088 72.9141C211.486 72.5734 211.714 72.1759 211.714 71.6648C211.714 71.1538 211.543 70.813 211.145 70.4723C210.746 70.1884 210.234 70.018 209.608 70.018H208.47V75.6967Z" fill="white"></path><path d="M210.632 70.9834L210.576 71.0402C210.746 71.2105 210.86 71.4377 210.86 71.6648C210.86 72.0056 210.746 72.1759 210.519 72.3463C210.291 72.5166 209.836 72.5734 209.267 72.5734V72.687H209.38V70.6995H209.267V70.813C209.95 70.813 210.405 70.9266 210.576 71.097L210.632 70.9834L210.689 70.9266C210.405 70.6995 209.95 70.5859 209.21 70.5859H209.096V72.8006H209.21C209.779 72.8006 210.234 72.687 210.576 72.5166C210.86 72.3463 211.031 72.0624 211.031 71.6648C211.031 71.3809 210.917 71.097 210.689 70.9266L210.632 70.9834ZM208.47 75.6967V75.8103H209.323V73.3684H209.21V73.482H209.267C210.12 73.482 210.746 73.3117 211.145 72.9709C211.6 72.6302 211.828 72.1759 211.828 71.6648C211.828 71.1538 211.6 70.6995 211.202 70.4155C210.803 70.0748 210.234 69.9612 209.551 69.9612H208.299V75.8103H208.413V75.6967H208.527V70.1316H209.551C210.177 70.1316 210.689 70.3019 211.031 70.5859C211.429 70.8698 211.6 71.2105 211.6 71.6648C211.6 72.1191 211.429 72.5166 211.031 72.8006C210.632 73.0845 210.063 73.2549 209.267 73.2549H209.21H209.096V75.5831H208.413V75.6967H208.527H208.47Z" fill="white"></path><path d="M223.552 73.9931L221.73 69.7909L220.194 75.6967H220.934L221.901 72.0624L223.552 75.9239L225.145 72.0624L226.113 75.6967H226.853L225.316 69.7909L223.552 73.9931Z" fill="white"></path><path d="M223.551 73.9931H223.608L221.73 69.4501L220.023 75.8103H221.047L221.901 72.403L223.551 76.2078L225.145 72.403L225.999 75.8103H226.966L225.316 69.4501L223.438 73.9931H223.551H223.608H223.551L223.608 74.0499L225.259 70.1316L226.739 75.5831H226.169L225.145 71.7784L223.551 75.6399L221.901 71.7216L220.877 75.5831H220.308L221.787 70.1316L223.551 74.277L223.608 74.0499L223.551 73.9931Z" fill="white"></path><path d="M236.072 75.6966H239.202V74.9584H236.812V72.9709H239.202V72.2326H236.812V70.813H239.202V70.0179H236.072V75.6966Z" fill="white"></path><path d="M236.072 75.6967V75.8102H239.316V74.8449H236.926V73.0845H239.316V72.1191H236.926V70.9266H239.316V69.9044H235.958V75.8102H236.072V75.6967H236.129V70.1316H239.089V70.6994H236.698V72.3462H239.089V72.8573H236.698V75.0152H239.089V75.5831H236.072V75.6967H236.129H236.072Z" fill="white"></path><path d="M248.536 75.6967H249.333V71.6649L253.544 75.9806V70.018H252.748V74.1067L248.536 69.7909V75.6967Z" fill="white"></path><path d="M248.536 75.6967V75.8103H249.447V71.9488L253.601 76.2078V69.9044H252.634V73.8795L248.422 69.5637V75.8103H248.536V75.6967H248.65V70.0748L252.861 74.3906V70.1316H253.43V75.6967L249.219 71.4377V75.5831H248.536V75.6967H248.65H248.536Z" fill="white"></path><path d="M262.821 70.813H264.13V75.6966H264.927V70.813H266.293V70.0179H262.821V70.813Z" fill="white"></path><path d="M262.821 70.813V70.9266H264.073V75.8102H265.041V70.9266H266.406V69.9044H262.707V70.9266H262.821V70.813H262.878V70.1316H266.179V70.6994H264.813V75.5831H264.244V70.6994H262.821V70.813H262.878H262.821Z" fill="white"></path><path d="M185.42 53.1524H178.932L172.33 36.6842H171.021V53.1524H164.818V6.87122H173.469C180.526 6.87122 184.623 11.9252 184.623 19.7618C184.623 22.7715 184.453 27.2009 182.461 30.2673C181.323 32.0277 179.729 33.4474 177.396 34.356L185.42 53.1524ZM171.078 30.6648C173.469 30.6081 175.404 29.7563 176.428 28.6205C178.022 26.8601 178.42 23.6233 178.42 20.784C178.42 17.6039 177.794 14.8213 176.542 13.4585C175.461 12.3795 173.867 11.6981 171.534 11.6981H171.135V30.6648H171.078Z" fill="white"></path><path d="M193.502 20.3864H188.095V53.1524H193.502V20.3864Z" fill="white"></path><path d="M195.38 20.3864H200.957L206.307 44.2368L212.055 20.3864H217.519L209.266 53.1524H203.632L195.38 20.3864Z" fill="white"></path><path d="M232.316 53.1524H219.625V20.3864H232.088V24.9294H225.316V33.9584H231.519V38.2742L225.316 38.2174V48.6094H232.316V53.1524Z" fill="white"></path><path d="M252.52 53.1524H246.942L241.081 37.7632H240.625V53.1524H235.162V20.3864H242.902C248.593 20.3864 251.382 23.169 251.382 28.7908C251.382 31.3463 250.983 33.2202 250.13 34.5263C249.276 35.8324 247.91 36.7978 246.032 37.4224L252.52 53.1524ZM240.682 34.7535C242.617 34.6967 244.04 34.2992 244.894 33.5041C245.747 32.7091 246.203 31.2895 246.203 29.2451C246.203 27.2576 245.804 25.8947 245.007 25.0429C244.211 24.1911 242.845 23.7936 240.967 23.7936H240.682V34.7535Z" fill="white"></path><path d="M266.463 26.0083C265.097 25.0997 264.642 24.5886 263.504 24.5886C262.366 24.5886 261.398 24.8725 260.544 25.6675C259.748 26.4626 259.406 27.2008 259.406 28.3933C259.406 29.1883 259.634 30.0969 260.146 31.0055C260.658 31.9141 261.74 33.4473 263.447 35.4916C265.154 37.536 266.008 39.0692 266.634 40.0914C267.488 41.6246 268 43.3282 268 45.3157C268 47.7576 266.919 49.7451 265.439 51.2783C263.959 52.8116 262.024 53.5498 259.691 53.5498C258.382 53.5498 256.788 53.1523 254.91 52.4141V47.1329C256.162 48.0415 257.414 48.6662 258.268 48.7797C259.52 48.9501 260.715 48.7797 261.512 47.9279C262.366 47.0761 262.821 45.9972 262.821 44.6911C262.821 43.7825 262.593 42.9307 262.195 42.1357C261.796 41.3407 261 40.2617 259.861 38.8989L257.244 35.662C256.447 34.6398 255.479 33.3905 255.138 32.482C254.626 31.2894 254.284 29.529 254.284 27.939C254.284 25.554 254.967 23.7936 256.39 22.3171C257.756 20.8407 259.577 19.8753 261.797 19.8753C263.333 19.8753 264.984 20.3296 266.577 21.0678L266.463 26.0083Z" fill="white"></path><path d="M162.883 58.2063C167.607 60.6482 172.501 62.8628 177.623 64.9072H186.843C180.583 62.9764 174.835 60.7049 169.371 58.1495H162.769C162.769 58.1495 162.826 58.1495 162.883 58.2063Z" fill="white"></path><path d="M180.867 58.1495H174.379C179.843 60.7049 185.762 62.9764 192.079 64.9072H204.429C195.721 63.2036 187.981 60.9321 180.867 58.1495Z" fill="white"></path><path d="M156.452 58.1495H155.314V64.9072H171.135C166.241 62.9196 157.135 58.4335 156.452 58.1495Z" fill="white"></path><path d="M196.347 58.1495C202.494 60.1939 207.331 61.4432 215.527 63.2036C207.502 62.5221 192.933 58.3767 192.022 58.1495H184.794C191.681 60.8753 199.933 63.1468 208.299 64.9072H266.463V58.1495H196.347Z" fill="white"></path><path d="M130.272 0V82" stroke="white" stroke-width="2" stroke-miterlimit="10"></path><path d="M0.0569331 74.9585C0.0569331 74.9585 1.47971 75.4695 3.01635 75.4695C4.6668 75.4695 5.74816 75.2424 6.31729 74.6745C6.77259 74.1634 7.00022 73.3684 6.94331 72.1759V64.2258H9.39053V72.5166C9.33362 76.2078 7.56934 77.741 3.41474 77.741C1.42281 77.741 0 77.4003 0 77.4003V74.9585H0.0569331Z" fill="white"></path><path d="M17.1875 66.6107C21.1144 66.6107 23.5047 68.7118 23.5047 72.2894C23.5047 74.8448 21.8543 77.7977 17.1875 77.7977C12.5207 77.7977 10.8702 74.8448 10.8702 72.2894C10.8702 68.7118 13.2605 66.6107 17.1875 66.6107ZM21.0575 72.119C21.0575 69.9611 19.6347 68.7686 17.1875 68.7686C14.7403 68.7686 13.3175 70.0179 13.3175 72.119C13.3175 75.1287 15.7078 75.583 17.1875 75.583C18.6672 75.583 21.0575 75.1287 21.0575 72.119Z" fill="white"></path><path d="M33.8628 66.838V71.097H27.4317V66.838H24.9845V77.5138H27.4317V73.2548H33.8628V77.5138H36.31V66.838H33.8628Z" fill="white"></path><path d="M72.9616 75.2992V73.2548H78.6528V71.097H72.9616V68.9958H80.3033V66.838H70.4574V77.5138H80.3033V75.2992H72.9616Z" fill="white"></path><path d="M84.401 75.2992V73.2548H90.0922V71.097H84.401V68.9958H91.7427V66.838H81.9537V77.5138H91.7427V75.2992H84.401Z" fill="white"></path><path d="M108.247 75.2992V73.2548H113.938V71.097H108.247V68.9958H115.589V66.838H105.8V77.5138H115.589V75.2992H108.247Z" fill="white"></path><path d="M61.693 66.3836C64.88 66.3836 66.7581 67.9737 66.7581 70.813C66.7581 74.7313 63.5711 75.2991 61.693 75.2991H58.2213V66.3836H61.693ZM61.693 64.1689H58.5628H55.7172V77.5138H58.5628H61.693C67.2704 77.5138 69.2054 73.993 69.2054 70.9834C69.2054 66.7243 66.4167 64.1689 61.693 64.1689Z" fill="white"></path><path d="M101.588 73.4252C103.467 72.9709 104.149 71.5512 104.149 70.2452C104.149 68.0873 102.727 66.838 100.336 66.838H93.3931V77.5138H95.8403V73.5956H98.7428L101.702 77.5138H104.662L101.588 73.4252ZM95.9541 71.4377V68.9958H100.45C101.304 68.9958 101.816 69.4501 101.816 70.1884C101.816 71.2673 100.962 71.3809 100.45 71.3809L95.9541 71.4377Z" fill="white"></path><path d="M47.1803 77.5138L40.7493 70.2452V77.5138H38.302V66.838H40.7493L47.1803 74.0499V66.838H49.6276V77.5138H47.1803Z" fill="white"></path><path d="M83.718 7.6094C76.0348 3.86148 67.1565 1.76038 57.9367 1.76038C48.66 1.76038 39.8386 3.91827 32.0985 7.66619C29.3667 14.2534 27.8301 21.4086 27.8301 28.9612C27.8301 36.4571 29.3098 43.669 32.0985 50.1994C39.8386 54.0041 48.66 56.1052 57.9367 56.1052C67.1565 56.1052 76.0348 54.0041 83.718 50.2562C86.4498 43.669 87.9864 36.4571 87.9864 28.9612C87.9864 21.4086 86.4498 14.1967 83.718 7.6094Z" fill="white"></path><path d="M81.8968 9.2562C74.7258 5.90579 66.4735 3.97504 57.9367 3.97504C49.3429 3.97504 41.1475 5.90579 33.9197 9.2562C31.4725 15.3892 30.1635 21.9764 30.1635 28.9612C30.1635 35.8892 31.4725 42.4764 33.9197 48.6094C41.1475 52.0166 49.3429 53.8905 57.9367 53.8905C66.4735 53.8905 74.7258 52.0166 81.8968 48.6094C84.344 42.4764 85.653 35.8892 85.653 28.9044C85.653 22.0332 84.344 15.3892 81.8968 9.2562Z" fill="#231F20"></path><path d="M49.5136 22.6579C48.2616 25.1565 47.351 27.9958 47.0095 31.1759C46.8957 31.1759 46.2696 31.2327 46.2696 31.2327C43.6517 31.4598 40.863 31.687 38.245 32.7091L38.4157 33.7881C42.7411 39.126 49.286 42.3629 49.3429 42.3629L48.0908 39.9778C47.7494 39.6939 46.8957 39.5236 46.8388 39.5236C43.8793 38.5582 41.8305 34.6967 41.489 34.072C43.9362 34.072 46.042 34.7535 48.1478 35.4349C49.5137 35.8892 50.7657 36.2867 52.1316 36.5138C54.465 36.9114 56.9123 36.4571 59.1318 36.1731C60.8961 35.946 62.6604 35.946 64.3678 36.0596C64.5954 36.2867 66.4166 38.5014 68.124 39.41C70.2866 40.5457 76.6039 42.4197 76.9454 42.5332C77.0592 42.6468 79.5064 45.0886 80.9861 47.928C73.8721 51.1648 65.9044 52.8684 57.8798 52.8684C49.8551 52.8684 41.8305 51.108 34.7164 47.8712C32.383 41.8518 31.1879 35.4349 31.1879 28.9612C31.1879 22.4308 32.383 16.0706 34.7164 10.0512C41.8305 6.75762 49.8551 5.05402 57.8798 5.05402C65.9044 5.05402 73.929 6.75762 80.9861 10.0512C83.3195 16.1274 84.5716 22.4875 84.5716 29.018C84.5716 34.9806 83.5472 40.8297 81.6122 46.3947C79.3357 42.4765 78.4251 41.3407 78.4251 41.3407C78.3682 41.3407 75.238 39.6939 74.4412 39.0125C73.8152 38.4446 73.5307 37.3657 73.1892 36.1164C72.7339 34.356 72.1078 32.1981 70.4005 30.3809L72.2786 29.5859C71.7664 25.9515 67.3841 23.5665 67.3841 23.5665H67.2703C68.9207 25.6108 69.2622 27.3712 69.2622 28.4501C69.2622 29.018 69.2053 29.3587 69.1484 29.5291C68.6362 29.3587 65.4491 28.3366 58.1074 28.5637C57.0261 28.6205 55.4894 28.5637 54.5788 27.6551C54.0666 27.144 53.7821 26.4626 53.7821 25.4972C53.7821 22.9986 54.8634 19.5914 54.9772 19.1371L56.9122 19.3643C59.1887 18.115 60.0424 16.9224 60.1562 16.7521C58.2212 16.9792 55.6033 17.4903 55.6033 17.4903C55.774 17.036 56.2862 15.6164 56.2862 13.9695C56.2862 12.2091 55.7171 10.2216 53.4406 9.08588L53.3268 9.19945C53.3268 9.19945 54.6357 10.6191 54.6357 12.5499C54.6357 13.0609 54.5219 13.6856 54.2943 14.2535C53.5544 13.9695 53.0991 13.9127 52.1885 13.9127C51.7332 12.3795 50.4242 11.1302 48.6031 10.4488L48.5461 10.5623C48.5461 10.5623 50.4812 11.9252 50.595 13.9127C49.6275 13.9695 49.0584 14.0831 47.8632 14.4238C47.351 13.572 46.2127 13.0042 44.7899 12.8338L44.733 13.0042C44.733 13.0042 46.4404 13.572 46.7819 14.8781C45.7574 15.3324 44.5054 16.0706 43.7655 16.6953L43.8224 16.8089C48.1477 15.1053 52.2455 14.7645 53.2699 16.0139C53.4406 16.241 53.5544 16.4681 53.5544 16.7521C53.5544 17.0928 53.4406 17.5471 53.156 18.0014C50.9934 18.4557 47.8063 19.3643 45.1314 20.3864L45.4729 21.4654C45.4729 21.4654 48.1478 22.0332 49.1722 22.2036C49.3429 22.2036 49.7413 22.2604 49.5136 22.6579Z" fill="white"></path></svg> 